<mxfile host="app.diagrams.net" modified="2022-08-11T08:14:12.034Z" agent="5.0 (X11; Linux x86_64) AppleWebKit/537.36 (KHTML, like Gecko) Chrome/104.0.0.0 Safari/537.36" etag="v61lrF9ZJWnsd3yTu3Tj" version="20.2.3" type="github">
  <diagram id="Aa0A9KJ5ho0KD87SR7rr" name="第 1 页">
    <mxGraphModel dx="1422" dy="1872" grid="1" gridSize="10" guides="1" tooltips="1" connect="1" arrows="1" fold="1" page="1" pageScale="1" pageWidth="827" pageHeight="1169" math="0" shadow="0">
      <root>
        <mxCell id="0" />
        <mxCell id="1" parent="0" />
        <mxCell id="9_eQKdfxGfHksTpX9G_l-1" value="" style="shape=image;verticalLabelPosition=bottom;labelBackgroundColor=default;verticalAlign=top;aspect=fixed;imageAspect=0;image=data:image/png,iVBORw0KGgoAAAANSUhEUgAAAncAAAMYCAYAAACpH8FZAAC10UlEQVR4nOzdB1wUZ/4G8Ge2A0vvVUQUrKigomJLjCVGU4zpxdwll3Z3aXdJLleSXPpdckkuyT/10psm0RR7i713FEQsIF2KdJat/xmUBBEQlGVg9vn6mc/K7uzOj5eFefZ9Z97ROBwOEBERUffksNZ6nDpV0K+ioii2vLykd1lFReSpypqw8uraoFNVFv/yWrtXea3Gvc4i6Kx2lWCzQ1Vj1qnFZwp1Fq3KalcLdocg1FgM8NTVNez09RqrTae2ifcKDk99vRUQHAatw2LQot7XQ6jwMWpP+Rj1xf7eHvk+Xj65Pt5+2T7eAcf8A8LSPdzcS+VuE2qbRu4CiIiIXJ3NfCqgMP/w6Nz8rFE5hScH5xZX98kptYfknHLzzqkK0Hhqa+Cjr4aPoUq8rYS/oUK8rUKU+PWQwKqG/7tr6qFRWSFGOXho6xpe1+3MfSrBIT5eh2qLuyDdb7LqNRa7BmLok+7TnbkPNRY3VJo9gsvrPXGqyBO52d6Q/l9uEr8Wb0vqfMXXc9jDvWuqI/wcxZGBblmRwf4HI8KjdkRF9Fvv7+N9QsZmpDMY7oiIiLpQXeXRARmHd1+ddjT7kvSc2gFphV6BhTU+6gC3coQbTyLSWIRIzyIMjSpE5IDT/9epLZ2ybS9dzVm3F6LSbFTlVgV55VYHe+VUBvfZnR986ffrQpBbvRN1VoOjl19txcAIdWb/3qEbB8QlfB8T1WuzWiVYO+UboHZhuCMiInISu+WUX0ba2tsPZB6/LC2nZkh6gVtIfrWfOtYnB/39jmOUuMyNPYYor0JoVT0j/3jpqjHAX1qOnfNYrcUgHKmI9DlUFj1i756YEV+uOvRQYW2QvU9A9amBkfr0+N6RG4YMGvVZZLBfugyluwyGOyIios7isKmLczfP2LZn5x2b0yvG7cwN8fcxVGJoYAYSxCB3Q/Rx9PHOgUZlk7tSp3DXmjAkILNhaVRrNagyyqL908t6p2zeGpPy1k/HHtdrNXWjYjV7Rg8d+FVSQuJnHgZtpYxlKw7DHRER0UWw1uZF7dy9/KGtB3JmbDvuHlNS66keEXIMY0L348HBBxDkXiZ3ibJy15gwLOhQw3KGcKQ80n1b4aCx3y7JHPuPT9P/Gxdce3JUfMDaMUlj3+4fE7FeznqVgOGOiIioo2zVxoN7f3h4yZaM3646HBIlHSuXEr4Xfx+Zini/4w0nMFDrpGFpabk5finMNq1q98n4kC25Q274+/bc6y3wqp0y1LjysnGTXuzXK2Sb3LX2RAx3RERE7WJXFR5fecPi9Vv/vOyAcYjdDtX03qn4cMq7DSdC0IWRThZJDk1tWB4a/oWQeSrKY+WJ5Kv+/HrxLHeDofzKlJiPLp8w/nkvD51rd4F2AMMdERFRG+zm4qCN6z5/5euNVXMOlwXrp/Y6jn+M2ozBTY4ro87T1/dEw3JvwjeqvSfj/BbunfTIe0tOPJjSX7ftxhmXPdI/Onir3DV2dwx3RERELTBXH437ccnnH3y5zWust65KuCF+GS6dsF2xJ0N0NwIcvxyrV2n2UP9wdOKYR1+v2Bjqb8i57Yrxj6YM7fuN3DV2Vwx3RERETVhqjvf9YdEnH3+8xX90X59q4enRX7CXTmbSvHy39l+Mm+KXqVedGBn91ldlX73/vf+rv7t6wgNjE/p8J3d93Q3DHRERkcRWbVy76q2P/rtCNzvCWCf8e/yrDXPRUfehFmyY2msLLovaql6TMzL89S/Kv/5sceDRh265/Oa4KP9dctfXXTDcERGRy8s5NP8Pz3956OXSOoPuLyM/wIjgNLlLojZIZyNPjtqGSZE7NQuPTIp74D91WyYNi1z4++sn38U58xjuiIjIhdnNJ4Pnf/OfZf/bGj30joFbcX3ciobeIeoZpJ/VtX1XYWqvzdr/7r3l2hv/XjT1ibmX3pQ8MHKJ3LXJieGOiIhcUnn+uiv+/v6ab2vrDfoPpzzVcA1X6pk8dbX468j3VNsKN3s/96FpwaUjB3z0+znj/uCq17RluCMiIpeTvuPtfz32peVPU3tlCPcmfAOVYJe7JOoEo0IO4LMpf9Y/te2Pv7nvXyeTX7z/iim+noZiuevqagx3RETkQhzCtjXPf/mP7/1ueHzE55gUuUPugqiTeeur8cq4F3TvpN4w6M4XzHvffOTKsaH+Hlly19WVGO6IiMhlbFj25E/PLgmZ8fL4Vzm9iYJJJ1zcN+QrTZBbachvn3fsfvexWSMjgzyPyF1XV2G4IyIil7Bn46vvPr80eMarE17BAP9jcpdDXeDavitUEATPB17TrP3fX64c5ipDtAx3RESkeIVHf5r72Dy33z2X8kbPCXZWYPta4IOfgQ0ZQHaFeJca8AsAEgYC10wFbhsOuDV5StrnwND/AZYObGbgrcDe3zQLBBew7e7q2tjlmnKzv98jb7gtf++xK0Zp1KqONE+PxHBHRESKZjcVhv3j4z3v3dJ/R4+Zv64+D3jwaeC9I2L9DkAl7q0D/AAP8f+FBcAK8fEVK4FXJgDfPgYMMZx+nt4L6BfZkM1+JT4nLx+oFm+DQwEf9dnb6u0tXerr4rfdnf12wFduBzcN6vXuj5H/vP/qYX+Rux5nY7gjIiJF++Gnt+bb7SrtrQMWy11Ku9hLxDDyJ+DLQjGsiWHskd8C96YA4frTj1sqgCWLgMc/Bw6tA6aJoWv7P4AIFdBnFnBg1tmv56gCrpgtPkdc72+vAr8Pcs62uzPpOrX/SHrR77qlUfdPG9n7iz7hPgfkrsmZGO6IiEixassOJL27MXTsGxNfatjBd3tiifPeBL4Sw5WuF/DNK2Iw8z97Fa03cOXNwLgBwMTHgdQNYmjbCnw05uweuB617S7gq6/EXUN+tL3+bcgr/33g0qly1+NMDHdERKRYS9f8+NLggGL09T0hdyntYssC/r1JzFlq4A9/PjdcNeU3DHjzNuALG3BTzMWHKzm33VWuif7O58PFV47MKqyMjw7xOiR3Pc7CcEdERArlEH7YrRp/7+A1chfSboc3AwesgHYQcG//868//mZxUcC2u4pGZcPl/Q4X/bjp6G/+OHvYo3LX4ywMd0REpEhVpQdHZFcEakaGHJS7lHbbl3H6ZIj+CUBUFx/HJue2u9IlIUuCXkwdORkYJncpTsNwR0REinQoM/3yfj7ZDReX7xHsQG5Zw6Fv6BUOqM/7BIVsu4vFe+72PZpXbjRbbAadVm2Sux5nYLgjIiJFKi6vjgw39qw5a+vNp28Nuq4/jk3ObXclaWg20Ft7srTSFKLUy5Ix3BERkSLVmlVavdosdxkd4nFmzriautO9aF0ZsuTcdldTq1S2unqrh9x1OAvDHRERKZKPp1d+pbkH7b9VQFTg6VCVeeL08W9aV9i2DEwW6LyNulK563AWhjsiIlKk4PABG7MrDz0mdx0dMSxeDFVrgJydwAGb+PX5Dn6zAEX14vdq7Nnb7ko12sFHqmot4T5GQ4nctTgLwx0RESlSfEzfFbnVofZqi7vKqK2Vu5x26TUGGPE+sCkbeGUz8Nm4todH074Dkr8ErroP+HDaxe3U5dx2V9pdOTNzcExAjlolWM+/ds/UU34WREREHaLVqMwjYmyHfs5JGjAzZr3c5bSLKgx49BLgmuXA168DKVHAPb1aXrd0D3DLJ0C1BTAGXPwOXc5td6U1ucm2cQkRP8ldhzP1pJ8HERFRh1x96dhn35t/8jMx3PWM2T0EYOY9wG8PAu/nAr9/ANh7B/CnyUDsmcMHLZXAEjGaPPoZcNgMDL0eeCGxh2+7i5TrJu1Yk1o34YEbe98hdy3OxHBHRESKNWZo3Lx3Fob+e03OiPBLInfIXU67CD7AW68Axn8Cr6cB774GvPcm4O8LeIsBrKAEqLWL64l78EulS4Dddvr+nr5t5xMcHxx5OGvW2NDNPka9Yo+3kzDcERGRYqkEwf7QTZfN/ce7piUjQw5qe8qxd5og4JX/AreuB95fA6xNB7JOARVqICgSmDYcuO1KYFavzp+yRM5tO9MhzZ++Xb7XNOnbZwbFy12LszHcERGRoiXGh6+aODx23os7f3f9s6Nf6zkzfKiAoROBtyZe3MsInsDiFfJsu7uo1Y/c/8TiscMeu2no/d4eesVOgdKI4Y6IiBTvgRsm3XX7M6VjP067OmrugIU94/g76hQWba+8v+14uih5oP/hyUm95stdT1dguCMiIsWTriH61p+uHH3nC7Y97lpT0HV9lzLguQC7NqzwqdT/2yeo3ax/uj7pAbnr6SoMd6R4ZVWmoNIKU0jfCJ/9ctdCRPLx8zIU/ffhWePue1nYZLbrfW+J+14nd03kPGZd/NG/73k1s6peq//P78fOUakEm9w1dRWGO1K8dXtyr8ovqe7dN2Iowx2Ri4sINB7931+uTPzDf7Tr8msjgh5OeNtTupA8KUuZfvrmP6+7XxvkZ6x8/e4xt0pzHspdU1diuCPFW737xLU5J6ti77t66BOC0HA9bCJyYYE+7nnvPz4r6akPvb+6Z12fUc+PesY3yL1M7rKoUwiOfaqnvvzr94PHzxwT+fFdswY/JZ0xLXdVXY3hjhStssbstyujaKLVZtemZZWOGNjbf7vcNRGR/DzddeUv33/Z5Z8sD3v81uUBf3lg2Keay6NWusldF104sy7u2PvZ/9r64y7L5L/fPvK3KYPDF8tdk1wY7kjR1u3NuVIKdtL/V+zIuoHhjogaST35c6cNfGH0gLBlT39k/GJZzjS/Pw/5V3CkZ5HcpVFHqHTmXba/LnhhaUJin3Bf/Vf/GJEgHV8pd1lyYrgjRft5T841jf9ftevEnAfmDP+TK3bRE1Hr4qJ893z6t1kJn69Mf2TustAnZsdtrpsb+0GQu9Ykd2l0HrnaW1a8vudGZOSZRz98/fAHJw6N/F7umroDhjtSrOo6i/e2tILLGr8+eao2Yv/RkjFDYwM3ylkXEXU/GrXKMnfawBevGB3zydvfRz931ZLk2TcP/Nk0J/qLIHcNQ153U6S7Zu1HGXeUrdxfN/Hmy6L+8+zd/a/Sa9V1ctfVXTDckWJt3J93hdlq1ze9TxqaZbgjotYEeLsV/P320b/JmjrwXx8s6vXk1YsvmT5nwLbK2VEfR/rqK+Uuz7UJGutx1W2rv8q8qm51qmn8NeMj3l3wbP/fucIVJzqK4Y4Ua82eE9ecc9/unNnSRJauNN8REXVcdIjXoWfvTLnxeEFF/69W93lw9pLkGyfGnDh5ba/Pwgb4HOSJF13Iqo0s2FT1u23fpQ/3zcw3DZk9MfrtBdf3u5OhrnUMd6RIdfVWj82p+dOb319aURey63DRhBHxIWvkqIuIepbeod7pT9wy6u77rhr61+/WZd7z963xt6ts1R7T+uypvTz08+hQ9yJe6cIZ1Mbqg9bbNi7JvsS86gBGRQV5Blw5LvaDl0f0+lqnUdfLXV53x3BHirT5QP70eoutxU/XK3Zk38BwR0Qd4WPUl/x2xqBnpSX1WEnysm1xN9++auSN0X41FZdH/6ybHPxdhFFbK3eZPZugthWoZ21ZnHdN0fKDnoPtDlXM9OTozz98rPdD4YHGY3KX15Mw3JEiSRMXt/bY2j05Vz9204j7pQOou7ImIlKGwTEBW6XloeuGPyx9kFy6NfaW//xw+Yz4UHPemPB082i/Rb36eh40qgTOmX4+Zk103r66Ofu2FA6zbTnq0ae4wtx/6sjovf+YG/2y1MZy19dTMdyR4pgtNsOm/XkzWnu8vLo+YHt64eQxg8KWdmVdRKQs0gfE8QkRP0qLyWx135VxcuL29IGT/7ZzzOUVVdXBo6LLc0YHbfEY5bso2t9wSiV3vd2CymDKcszcta30kpNbToQH7D1WlxAT5u07ZnDY0r+lhD3bv5ffLh4TffEY7khxthwsmFpbbzW2tc7KndnXMdwRUWcx6DS1YweHLZGWh65LfLiwrCZqa1rBlHUHBk3799YrAnzdHVX9Q6qK+/sdxwCvbUHx7pvCFD+PnqCxlgijMg7VpOSlnYqzpBf5eqflWuP0Ok34qP6h6bPGh37x7N2hq4xu2gq5S1UahjtSnDW7T8w+3zrr9uZeZbba7uGBuUTkDCF+HieuSon9QFrsDofqRFFVP+kSiOnZZYlrMyYkZeaUeQd5oWxASGVJP99sxBgzPCL1+0JCDce91D2w48qkjs7PNQ8tyDXFnTpSGVt/6GSAZ3q+vY/ZYg/u38svt38v/71XTvLb+Zde/juDfN1z5a5X6RjuSFEsVrtuw/68medbr6rW7LPlQMG0CUMjfuiKuojIdUlXxZGmVpGWy5N7fybdZ7c71McKKgakZ5UmHTpxaviWrMq4nJNV2pLyWn2Qt7o40tdSFuFdYYo0FqgiPY56BBty3X1U2X4+mnxPrcratd+AoLLXCWGl5bbI8lJLr/Ki+piKnJoIS26lry7nlME7p9QeVlFj9osM8iwLDzDW9g71Sp+e4r/zkWj/naH+HlldWyxJGO5IUaSrUExOiprvrtdWa9TCLydM7DxUNEk6lsPDTfvLLKS8DBkRyUU6riw23CdVWmaOxUeN90vXwi4orYkWg17smaXvluyqviUVtWHl1fVacdHrtap6P6O6zMfdXuPjZjH5upnM3oZ6izTMq1E57BrUad11VhvsVrWHtkbclMOhQ5WbViNYTTYPs80hCFYY6+usGjUEraWq3qByQEC93c1aa9EL5SZ3TXmdVn+qVmUsq7L7ltdYfMWE5+Fj1Nf5ehqEsACPcjHEHRvU3/PItCDPI5GBnkek3jjpWr1ytin9iuGOFEU6XV6ak6r5/Tc+vXj/7In93pb+kMpRFxFRe0gnaUQGeWZKS2vrSCMPp6pMQdLJYaeq6gOlW2mpNVk86+x2jdXm0Ir/bzjuuLrC4u2wO1T1FpvBZLZ5GN215WpBsGk0KrObXlMjrePppiuXgpleq6kLMGiqY436EmnqF1+jodjPy1Ak/b9xXeoZGO6IiIh6EE93Xbm0RAXjsNy1UPfEcEdERESkIAx3RERERArCcEdERESkIAx35BKkCUalGeTlroOIiMjZGO7IJUjTokhnkMldBxFRd3I459TQ6FCvdE7oriwMd0RERC7qp83H5ibFBf/MCd2VheGOiIjIBUmXRVu968S15dWmAIY7ZWG4IyIickGpR0tGF5fXhm/YlzfTbLXpOTSrHAx3RERELmjVzuzrpNsak8Vr84H86ROHRn4vc0nUSRjuiIiIXEzDkOzunNmNX0vDswx3ysFwR0RE5GIah2Qbv24YmrXYDDqt2iRnXdQ5GO7IJahUgs1ud6jlroOIqDtoHJJt1DA0ezB/GnvvlIHhjlyCu15bXVtvMcpdBxGR3JoPyTbi0KxyMNwRERG5kOZDso04NKscDHdEREQupPmQbCMOzSoHwx0REZGLaG1IthGHZpWB4Y6IiMhFtDYk22j9vrxZHJrt+RjuiIiIXERrQ7KNak0WTw7N9nwMd0RERC7gfEOyjVbvPDGH4a5nY7gjIiJyAecbkm20fj/Pmu3pGO7IJRj0mhpTvdVD7jqIiORSWWP2u3p87HvtWbewrCYqKtjrsLNrIudguCOXoFEJVqvdwfc7EbmscQnhP0mL3HWQ83FnR0RE5KIsVrsuu6gyLjbcJ1XuWqjzMNwRERG5qNLKupCH3li76KcXr+oldy3UeRjuiIiIiBSE4Y6IiIhIQRjuiIiIiBSE4Y6IiIhIQRjuyCWo1SqrzWbn+52IqAlpouKhsYEb5a6DOhd3duQS3HTqmjqzjZMYExE14edpOPnMnWNvlrsO6lwMd0REREQKwnBHRETkokxmq/vOjKJJKYPDF8tdC3UehjsiIiIXVV5dH/DSFzv+L+XFcE5irCAMd0REREQKwnBHREREpCAMd0REREQKwnBHREREpCAMd+QS3Aza6jqTxSh3HURE3Ym7Xls9bWT0l3LXQZ2L4Y5cgloQbDaHQy13HURE3YmXh67s/muG/kXuOqhzMdwRERERKQjDHRERkYuqMVm8lm7LuvnaCX3flrsW6jwMd0RERC6qqtbs88nSg48z3CkLwx0RERGRgjDcERERESkIwx0RERGRgjDckUvQqFUWq82ulbsOIiIiZ2O4I5eg16tra2ot3nLXQUTUnXi668pvnz7wRbnroM7FcEdEROSiPAzaSp4pqzwMd0REREQKwnBHREREpCAMd0REREQKwnBHREREpCAMd0RE1KO98NXu7+rqrW5y10Guw02nqhw3OPSzlMHhi+WupSUMd0RE1KMt+Dn9msjwALnLIBdirq+vWL/nxPil/74mTO5aWsJwRy7BQ6+tOnmqNkLuOojIOXr3Cpa7BHIhHhp7dkF+SaXcdbSG4Y5cgqAS7A67QyV3HURERM7GcEdERESkIAx3RERERArCcEdERESkIAx3RERERArCcEdERESkIAx3RERERArCcEcuQatWmS02u07uOoiIiJyN4Y5cgl6nrqs323h5IiIiUjyGOyIiIiIFYbgjIiIiUhCGOyIiIiIFYbgjIiIiUhCGOyIiIiIFYbgjIiIiUhCGOyIiIiIFYbgjl2A0aCtrTBYvuesgImrKUfwF5j/xMvKs7VhZPRjjn/8YSUGqX++rz8KxtfORtmcXCvPzUFtrgl1lgN4rFH7Riegz5joMGRYDndD6doXg23DDcw8hVN3WxquR+c4VWLStAg7BH0MeWYrJA7XNXksFj5Ev4NZ7psBdaPlV7MdexyfPfYzKAX/DXQ/PbnU9ujgMd+QaBDgcDvDPCBF1T4IHjEGB0Lb1V0odBkOTAGbLX4ilr72Iw8Vm8TEveEf0Q1gvNwjWKlTlH0b+7iPI2/09Usf8E9f+Zgo8VS2/rKN4FQ4duR+hcW1cxKdmEzJSK+Fo85uwo2bnG9iSPhaXDvBoc01yLoY7IiIiuWmSMO7J19C/vdfRsWdhz0cv4XCJDZ7D/4QZt12PMO8mu3RHNUq3vY4lH3+H4s3PYXVcAq4cF3zOJ1zBNwzGikIc2bob4+KSWwkFDtTtX46sOjcYfdWoKW+5JMHNCzpTHg7M+wSD/n4fgpkwZMOmJyIi6mEcJeuRmVUP6Cch5Y6bEGZsFtsEI/yTH8f04oP4YmEm8ndtQnXKNfBstpoqMAmR+sVI37MMJ25IRoy+pY2V4di27TDrhiA6Kh2Z5S3XpIq5Don4GpvTvsT6n6/AtZdFcbhEJgx3REREPYyjuhwmuzSaGwJPt9YilBoBU97EbycZYTS2NuQag16DQ5G+ah0yDtQgJrGF4dSK9cg4VAtNnxREGFJxuLXoYPNH/A234ehzbyN30X+RMeLfiPdhvJMDwx0REVEPIw2neqoFnDq1WQxeFYgY6N3yino/GFvqjTvDYQMCh6bAc/U8HN+2EabhU2E4K4/ZUbVnOXLNOoQljoP74bdafzGrGYi8GRMmLsa3q37Gxh+2oPdtY6BnvutyDHdEREQ9jOAzCYMS3kbOzmzs++8tqLzkdgwdMxGREQHQdCRMORxQx05F34D52HVgGY5VT8GApmO3jiIc2b4HVm0i+g0PhnC4jZey2+GAOyJm/gFxOx5F+sbXsGNcElJi2jhRg5yC4Y6IiKinEfwRP/dlVNY/gS0HcnF82XM4vvwFaDyjEdJvOCLiRqBXwliEBXqc/7g3zSDEjYjCniXbkLGnDAPG+//ykKNkNQ4fsUA7cCpivQXktac2z0kYe2Uyjn26BXvmzcPAx26Fbytn6pJzMNyRS9Bp1PVmq62NwQkiIhlZt2PdkzOxpY0kJgRdh5kP3YqAxqDkMQwjH16AuLTFSN24AkdS96Gs8hhyd0rLt9j6pR7GPtOQOPt+DIsPROv5SoOgkZfBb+kHyNm2BlXj5pw58cKO8p0rUGhzR+9REzowJ50KXuMeRNL6XdiU+SHWb5mKWWODeHJFF2K4I5eg06pNZovNIHcdREQtctShtjgXtW2sotKUw3bOvW7wHnAtUqTFYUJ17j7kHtqF3PTNOHYwDdVHfsC6f29DwZ3/w4zRYa0GLFXEVMRFfoRNh5chs2Q2hgeKUdCejczt6bC5TUTcEOmYPkv7vx91Xwy//lqk/etLHFv4No4P/QdiPBjvugrDHRERkdy0EzD99Q7Mc9cSwQBj5CjES8tl98FelYp9nzyOdbvzkTnvPRwf9hRiWvuIq+qNfiP7Y+u3qcjYmYNh03sBBauQkWOHIWkaoi8gmGn73Ylxo1bgp62LsGHJ1YiaM6SN3kPqTAx3RERECqTyHIxhv30YBRmP4lDVLuTkWhET29puXwWfEVMRsvAACratRNnUO2DfvhKldh/EJyfjgo5pEXzQZ/Y96LXvOWStegV7xn6IRIG9d12B4Y6IiKgncVSjLG09so8WwJh8B/oGtdEfpg+CpzTBcY0JFnPbFw8TAi5FfN83kHd4A44XjYV59zE4vGcirv+FX0pM8J+F8ZcvRO53B7Bj/k/od7WOwaMLsI2JiIh6lDrkLXsGPx8ww6ssHpG3j202N92vHMV7kFdqB9RR8AtUt7xSIyEYscmJWH9oF7LWL4G5wAHj+GmIvKhT0TQImPwQEjbejV2p72Bz/OXQcGzW6RjuiIiIehIhEHGXX4Wd6fNwav1fsVD3Z1xyxRQEe2mbrGRG9ZGfsOnTd5FvEeCWeA36BZwvVQnwGDYdUV9vRfbahbA7QpAwatjFBwX9MIyaMw0Zby3GoSU/wnDuWSHUyRjuiIiIehhd/wcx89Yy/PjlShSs/Bu+WP08PIIi4eXpAZW9BrXFJ1BeVQcH1HCP+y1mzL0czS8/2yLjOMQP9MDRnVUQgq5BXJ/OmIBYgGHY/Rg9aD1W7S9FHaQLo5EzMdwRERH1OHoETHgJtw24GgfXLsLR9AMoLsrGyZP1sKvcYPCOQPjw4eg96moMToyDob1DoYI3opNTYNi1Am5JUxDSWSlBCMHA6+biwKE3UHCeY//o4jHckUswumkrqussrVx8kYhIHkLgzbj+/Zsv+PmawGQkzBGXTtyuPvF53Pfh8y08okPfezbj4Xva/1pNqcLvwI3v3tHBSulCMNwRERERKQjDHREREZGCMNwRERERKQjDHREREZGCMNwRERERKQjDHREREZGCMNwRERERKQjDHbkEvVZtqrfYDHLXQURE5GwMd+QStBpVvcVqv6jLXxMREfUEDHdERERECsJwR0RERKQgDHdERERECsJwR0RERKQgDHdERERECsJwR0RERKQgDHfkEgQIDgccgtx1EBERORvDHbkEDzdtZU2dxUvuOoiIiJyN4Y6IiIhIQRjuiIiIiBSE4Y6IiHq8vOy8dLlrINdxoqgy3tNNVy53Ha1huCMioh7tm3/O7F9Xb/WQuw5yLX6ehpNy19AahjsiIurRokO8DsldA1F3wnBHREREpCAMd0REREQKwnBHLkGvVdfVW2xuctdBRNSdpGeXJsWE+RyU/kbKXQt1HoY7cglajcpssdp1ctdBRNSdLNp8/PakuOCfJw2PXCB3LdR5GO6IiIhckN3hUK3efeLaU9WmQIY7ZWG4IyIickF7M4vHlVbUhWzanzdDOmyFQ7PKwXBHRETkglbtyp4j3dbWW42bU/Ons/dOORjuiIiIXIw0JLtmd87sxq9X7sq+juFOORjuiIiIXEzjkGzj1xyaVRaGOyIiIhfTOCTbSBqa3ZSad/klw6O+k6sm6jwMd+QyVIJgl4YipFu5ayEikkvzIdlGq3admMNwpwwMd+Qy3A2aqlqT1dPopq2QuxYiIrk0H5JtxKFZ5WC4IyIiciHNh2QbcWhWORjuiIiIXERrQ7KNODSrDAx3RERELqK1IdlG0tCsyWx1N+g0tV1ZF3UuhjsiIiIX0dqQbKOGCY0P5E9n713PxnBHRETkAs43JNuIQ7M9H8MdERGRCzjfkGyjjfvzruDQbM/GcEdEROQCquvM3lePj32v6X1mi92QnlWalNA3cGPT+wvLaqOiQ7wOdW2F1FkY7shlSJ9CpU+jnOeOiFzR+ISIH6Wl6X2FZTVRd/1r5YYnbhl1t1x1UedjuCOXoVGrLFabXSt3HURERM7EcEdERESkIAx3RERERArCcEdERESkIAx3RERERArCcEdERESkIAx3RERERArCcEcuQ6USbHa7Qy13HURERM7EcEcuw12vqZYuii13HURERM7EcEdERESkIAx3RERERArCcEdERESkIAx3RERERArCcEdERESkIAx3RERERArCcEdERESkIAx35DLc9Jqaunqrh9x1EBERORPDHbkMtUqw2uwOvueJiEjRuKMjIiIiUhCGOyIiIiIFYbgjIiIiUhCGOyIiIiIFYbgjIiIiUhCGOyIiIiIFYbgjl6FWq6w2m53veSKiM7w89GX3XzP0L3LXQZ2LOzpyGW46TU2dmZMYExE1ctdrqqeNjP5S7jqoczHcERERESkIwx0RERGRgjDcERERESkIwx0RERGRgjDcEbmII/kVoz5dkfGk3HX0RF7u2vxpIyLfH9Q7YJvctRARnQ/DHZGL2JFxcvrSzZnTI8MD5C6lxzl58pS5tq5e5Urh7vDhw7eXlpYmyF1HZ/Dw8MiLjY39yt3dPV/uWlpSWFsW9r9NWx522B0quWvpDJMjE5clDwhdIXcdTRUUFEwpKiqaJncdnUGn052KjIxc4OnpebC1dRjuiFyIn68nevcKlruMHmdAL9+teg1MctfRlTZv3vxfs9nsJXcdnaW+vt53xIgRf5O7jpasPHRo1vfflD9yKviw3KV0ih+KKh7a8d7Ngtx1NJWWlvZMbW3tSJOp5/8aGwyG+rKysstTUlJGt7YOwx25DDeDprrOZDXKXQdRT6BWq6W9oCLCXWho6FqHw6GWu47WOOxQVfvk4ejgxXKX0imSivrJXcI5BEGwV1VVobq6Wu5SLlpkZOR+nU5X2tY6DHfkMtSCYLN14z/wREREnYHhjoiIiEhBGO6IiIiIFIThjoiIiEhBGO6IiIiIFIThjoiIiEhBGO6IiIiIFIThjlyGRq2yWG12rdx1ECmTAzXZW7Bs6XrsycxHWa0NOq9gRA8ejakzJqG/b0d2NzaUZ27A8pVbkHqsAKdq7dB4+CGsz2CMvmwqUvp4QRGXcrgYx0qBhcVAeh1Q6wC8DcAwf2B2EODfjvmD7eLz/pIOZDnOv+64PsDvfS665J6lM9/PZ16xNhvrvvwfvttZBFvUVfj749MR6qQ3MsMduQyDTl1rMtvc5a6DSHkcqNz/Jf7z3gYUWAUYfMLQq7cGNSdzcWjDd8hIzcQtj9yNsUHtmWbSjNzV7+D1b9NQ6RBfyzcMUdEa1Bbn4fjeVTieugeHb38Evxnp77oBb/cJ4FUx2FnEEOcnhrowsSUKaoHVueJj1cCTMUDo+QKe+JxQN/FH10a4qzEDJTZpktBOLb/768z38+nXq81ai8//9x12n7RAanFnT7jKcEdERBfHdBA/fLkRBTZvDLnuPtwxqRfcpTxgLcW++W/i/fX7MX/eFgz4fQp8z5MTbDkr8PGCNFSpgpB8y724MTkUBuk5tkoc+ultvL3sGHZ+8wOSBt2Boe6uFjpEdRXAByVi22qB22OBaeLnVakZLGIQ+/QIsLIc+LgUeDzg9P2tUemBB/u3/ri9HnghHagQA+BUz07+Jrq5Tnw/N3xYWfcR3vlmD0p0vTFxqg/2rtyNSid/Cwx3RN1ccXld2Aufb3tnclKvb8YnRPxodNNWyF0TdV9/eW/jvCExAVsuTYz6NsjXPdf5W3SgctfP2FHugHvC1bi1cUco0fgj4dobMS7tVaxJW4ONeWMwM6Kt/jYbjm3ZjDyrAJ9x1+Om0aHQNz6k9kL8Fddi3K6XsbI4DanHbRg60AV3YVuKgTIHkBT+a7CTaHXALZHAvkwg9SRwwh/odRHhd6P41km1A5eJrxnjSn2knfl+ll5O/FCybT9qwibgrjuvxdCq73FgpdO/CYY7ou7OZrdrNuzPmyktOo2qftSA0BWdGfQcxV9g/hMvizvUlh4VIKh00HkGwzd6BGLH34yhw3pD54IdJj3FgWMlyat2Zl/36je7/jM4JnDL5MSob5wb9OqQceAIzGIMGzZiKLyavzd0fZCU4Ie1qwpx4GAxZkQEtzGc6oBX/8twlXslPAf3+zXYNdKEIjxEfPZJEyqrzHC9XZgN2CtdG1UNjPE5t2dObxRDnxjyFpvEkFcvhjvDhW2mRvyzMl9cPMVtXOtivXad+n6WaBEy+g48NioJIeKPxlblvMqbcrXfDKIezWy1650W9AQjvMLDoG/2x8xhq0FtSS4K951A4f7FSEv5J2bPvQyeXf5hvgYZb03Bsop7MPcvt8KbAbNNDgeE/UeLx0iLU4Oe/SRy8sxwqKLQK1LXwgpqhPeKgFooRWFOPqwIRktrnaZB8OBJmDq4lYcd1aiSso2gh9HY+qsolk0MbTl2QOUORLf0Cyj+UsS4iTdisDsurosLCXcOYEk+UCK+1s1hgPdF1tzTdOr7WSR4Y9C4JCcV2zqGO6IeqtODniYRY594Df3dWnjMWoL8dS9j+dcrULbxWazul4ArU4LaPKSn09mOoShH3GF5deVGlcGpQc9ahtJycQMqH/h5t5z4tT6+MAoOVJYWQ1wVQRf4xrHmbseOEzYInoOQ0McFd19WM1AqNqBKi1YP9vLTne7RK6lvyGkd/iUtLwOW1QIBgcBlF9jz15N14fvZmVzwt4NIeZzaoyfRBCDs0n9iWtlhzFuShezNa1E99jp4duUftaoMnJR2bM4Md7Y6WBxu0Cr4L2NnBz2HuQ4mm/hz0RlgaKXdBL2hoQ+pwlSH+gsJHJL641j6+Qrk2PToO+1yDGnpQ4jSmW2AXbzVqVvfextUp9u37sy6HTotU/zhLC8CasTXmB18YR1/PVyXvZ+dTMF/wog6Ztn2rJvqTFaj3HU0V1lj9uvI+s2D3pxJcW/dc+WQv198JToE9R8Kw9LjqDuZjUpxx+HZdMfhqEXZ7i+wY81KnMjKRo3JAbVHMPz7jEX8ZXORMCCkyX7GhuIfbsIX3x+F94xPcPu1A88+bsWeia1P34TNueEY8devELLiUvy0re70Y5n/wf9+8x/x4/OlmPHGy4j75cAsC6oPfYftKxYh60gWqsSdm9YzHIH9JyPh8lvRL9yj6QZQvuwOfDIvDUHXf4srey3H8k+/xImTAvo/uAJTBjtnOsQtB/OnFZbWRjnlxc+orbe0+z3cPOhJHwYeu2nkfYE+bvnt3qDVIra8SK1uPUdoNKdn05DWbce0aufUaTqBNe/9H5ZkW+CTOBdzJ53vOCeFkhqvYR4NofVAoTnTMhZ7x1+/VvwcuFr8PTOKf3ImnHPEo2vogvdzV2C4I5fhbtBW1ZosrR4dfDS3fHBFbX2HglRXqK3veOCMDPLMlHrupB6ZfpG+ezutGLutoTMAGu3ZO1dHFXK/uwffL0mDWROI4IGXobevHubifcjaPx9r969C9i3v48pJvS9gp6yGb8KNSHRsQuqODFh8kjBoZH/oNH3h98tf33oUr3oYC77aghqVH4IGTcJAXw1MBbuQteU9LNq1Dol/fAcTBvx6AJFae/pIGWvFGmx4/wMU6OIRFucDb4PzPobnnKyKPZJX3toRZZ3CarV36GA0X0998aRhUQsmJ0V9k9gveK1KJdg6tEHVmZ2gzYZWn2i1QuoMkdZVdbB57ZUHsfD/PsDKrHr4DbsFf5g7Cv4umezwa6iznQl5LbHaf123o7aXiJ8mxedd6g94nH91RXLy+7mrMNyRy1AJgt3ucLS6W7j/mqF/6cp62quwrCZq+basm863ntMC3S9MyE/djXqHAG1EHHybtKQ1812sXJoOi1siUv78OkZGN+4Z7KjZ9wLmv/Edjn/zMg4MeQNDOrxnViNg9B+Q4lONDDHc2QLGY+T1Z59QYT/xMZbPE4OdPgGjH/kvRvdpzPAWVG57EvPfW4bdH7+D3s88hqiGDgnpLGBVQ33V2xdAnfQ65t44Gs6eNu26SXFvOncLwJYDBdPO94HgogNdE4LBA25SkLDUoU7q8mhhr2KvEx+TDhVz9+hQG1uKtuKzNz/H9mIVQlPuxO9vHA5/Z8/+2p0Z1A1zDzcMz0pt3VIHc+2Z4VgPDTr0ScohvuCmKvEHKr7oGFc7Q/ZXznw/dyWGO6IeLCrY63Dj8VLOCXRn2MpQsO5FrFibB4cqDPGTxuPXDq5aZK9fgnK7Cj4TH0BidNOP/Cp4DLkXIwctwfL9O5C2Mx+Dp0Z08iEqZuT8vADFVhUCpj+KUX2a7pi08Br5EEZtWoeVB5biQOr9iEo6nXsEQarCjrr6eFxyZXK3/SPdWfw8DScnDotc2BmB7iwaXwT4CHCUlKO0XEwVbs0ThQP1ZSWoEX/qGv+Adp/lbMlfi3dfm4cDVR7oN+se3D09Fh4K/xmdl0Yn/iDFRjhpPj3XXUtv2hLz6dsAXceOBausADKkYy28gL4u3NBOej93NYY7oh6mMdBJO+m+Eb77Ou2FrXuw5V+3YW+zv2UOey1qpWPsaq1iVvNF5FXPY9yAJgHOfgz5RyvhEMTHBsSfe5yK4IPw+Fio96Wi5NghWBHRYofDBRO3n5tZKobOYEQN7ntuZ4Xgj6hB/aBO3Y+CzEzYk4adtY46aiTCFZrspEA3aXjkAjH8S4FuXacFuqZUoYiK0EE4WYisE3VwhHo0yxRWnDieC6tDjajoqLanjTjDcWonPntTCnaeGHT9A/jdxPB2PU/x1Aagl/juLTQBx8UfZUTzXbgYRjJrxQYUfwJ9OnilxYwq6XMSMNjYco+gq3DC+1kODHdEPYDTAl1TjkqUZ6WivKXHBG8EJV+P4ZOvQ3yfZtf0tBWh8pQ091YwvFocM1PB6BcEQXDAdqqoYThD25lZyi5uv8zecEJH7rKnsWzduS/uKD0p7u/sqCnOhwXDmkyOK3769gmCm4Kyna8Y6MYODlvi1EB3Fj3ihsRBv3s/MrbtRvnIcWfN0uGoTcPWvRXi3iYaCYP9zt+ZZD+JdZ98ge1lesRceT/uYrBrQvz9SvQEtpUDG8UlpdklxmoqgZ0Wsa3FD1/DO9Jq4i/l4ZrTobC3e7c8+7PrdPL7WSYMd0TdXLCvR853z8yMc/qGtBMw/fVm89w58rH/P9dj1UHxE2zgePRrHuwktnpY7Y6GiWU1rXziF7T6hudZzXWnzy7r1HBngtUqHWBejpO7F+FkG6sKppqG7f86UbMAlVZZ3RSfPDFtpCC0eri9EwjwHHYJRi9Kxdq0H/HZqkjcOTn69IihuRBbvpyP7VWAZ+JkjAlq8u4RQ9zuRWuQUatF7/FXIzlMesyByp0L8OOhOhjib8AdU3ude5UKVzcyCPhWDBf78oHF4i/rDI/Tv0/1JuCDXECa+Cg5GAhtelBqvfgc8TejRrxvcjgQ2XymcvHDUZ5FOlYBDZdRcGmd+X6WD8MdUTfXtTvq5hsPw8DrbseBZ/8Phctfwu6R/8PIiGZhSC2GOumUMWt9wxyrLXFYTA3HeEshr70n8Tkc7fy2VQZopa5AxxBMeO5DJAa56qmUp8nyftHHYdatk3HkrZU4+N1L+MuacIT7qlFVmIPiGjs0oRNw+w2JZ8+LKIbxw1vWYe0pA0wDrjy9M3SUYPvaVNRK04wVrsU7z21oZYMC9IOvwyNX9evYNG5KYPAE7hYD3r+KgM8zgKViwPMXGza/FqgSGy4iELjD9+wPUA7xF3NdMVAqtnGCFO6avabjzDF8UiRoZeJel9JZ72eRPWsp3vh8JyobfyvNFTgl/t9e8LP4/t75SwjTDJiNP88e0GmhjOGOiNqkjrwJ4ycuwrcrD2D7l9+h359ugM9ZB62FwttPOg6oEBWlViC0+Sd/O6pKimB3CND4hZ45KF44c0KDAw5bC/NxOSphqm1vuBO3L52Bm3dmeNjFw508BLjHXYM/PRqBpYt/xs6MXBzPVsHDJwpDx07A5dOTEdWe4xodJtTW2aV3BepPFSD3VOvbM4TXyfipR2YDI4Bn3E/3xh2sA46K9/mLX08Sg91VFzCNidRzJ00jKajArlJJJ72fIXWaliM/N7fhShZnEUNeYe6v88trg2o79f3McEcuQ6NRmTs6BxhJ3BEx8wHE7/gT0g69g7WbJ+LKlJBfOwZUMQiP9YFQcAo5B9JgGzT07N4URwly0o7ALmgR3G/QL390dG6nD1Sur64454+a4+R+FJS3Mglr8ym+VNEI7xsAIacYWfvE7ccNadab44D5xAZkm3ojKjYSemY/JxEDV8QoXH23uLRndXU/3PDC27ih6X2qSMx68m3Mck6ByhLlBzzczmk51Z7AW8PbeFxMg/9t43GX1AnvZ5Em7ka89M6NTqivbQx35DL0OnVdTa3F1S6D3TmMEzD2qtE49vEmHP/uNWQOeQH9vBrjnQFRE2fBb/PHKFv/BnYl/7fJPHdWVO38L3ak10MwXorBI4LPhELxU3B4DAzCbtRmbkWhOQXhjbHbXoD0BfNR0uzAPEGjaxjStZ/KR7UN8Pnlr5cOEROuRuD6d3FyzUvYPPhNpPT3/eXZtuIVWPPW35BWEo7Ev8zHhFjmeyJSNoY7ImoHFTzHPoik9buw8ehKrP/uCkTNTfllrjt1zG8x5ap9WLhgNza+MBtHB49GkBdQV7Ab2Rk5qNf2xpA7/ow4r18Dm7rvLAwM+wHb87/GopdrMSSxHwy2kyjctQi5XjcjMf7/sC3d8cuxd6qQOAToBFSULcCSZ7MR6GlErzkvYHiUGqqouZh63X4s+HoLdrx8NY7GjUBIoBH2ikzkpaehyuKGoOl/xag+DHZEpHwMd0TUPupYDL/+OqS99BnKNr6MraOHYWJ8Yw+dB0KveAs3RX6F7auWIfvQcpyst0PjGYGg5LswePotiI9sNuu9djBGP/QK1PPfR9rBJdh2dDF0vn0ROfpxzJk1GiffexvSNPw265n1Padg3M3bUfXtCpTk7UWhXxKifzk7Q4/Ay14Tt/8ddq5YjONHtiAjox6CWwB8Y2diyCVzMXx4786dgoWIqJtiuCNycULgzbj+/Zvbta6m70OY+8FDrTxqgE/CHZgiLu2l9h+H0feKSwuP+dy/FQ+fdY8Ofin/xC3i0jItPONvwCRpOe+WBXhMfAcPTGx3qUREPQbDHREREZGCMNwRERERKQjDHREREZGCMNwRERERKQjDHbkMo0FbWVRW2/zCO0RERIrCcEeuQxCkSdM4GQZRO6hUKou7u3u+TqerOP/a3ZvZbPaRu4a2uGsMdUZTgCURo47IXUsn6S93Ac1ptdoaDw+PU25uboVy13KxxN9Jm8itrXUY7oiI6By9e/dekJWVNUuj0dTKXcvFqq6ujvb3998ndx2tGRsZ97Ov9lh5SOYVPb6tJeX+9dly19BcdHT057W1tUPFcNfj21j8sBLq4+Mzr611GO6IiOgcY8aM+aO0yF2HKwj198ha8cq1QXLXoWSRkZEfS4vcdXQVhjsiIiIiBWG4IyIiIlIQhjsiIiIiBWG4IyIiIlIQhjtyGTqNqt5stevlroOIiMiZGO7IZei0apPZYjPIXYdcNGpVvc1qNRs0jiK5a+lpairrtR5eepXcdRARtQfDHZGLGBDps7qiqu75g+knLHLX0pzd7lDXi8HbTa+pkbuWluQVV4++76qERXLXQUTUHgx3RC5iYG//7Tveu7lbXqHjx01Hf7MxNW/Gv+4ZP1vuWoiIejqGOyKS3aqdJ+bsOlw0sdZk8XQ3aKvkroeIqCdjuCMiWVXU1PvvOFR4qdVm127Yn3fF1JHRX8ldExFRT8ZwR0SyWrc390op2En/X7XrxByGOyKii8NwR0SykoZkG/+/+UD+dA7NEhFdHIY7IpJNZY3ZTxqSbfxamqqGQ7NERBeH4Y5chtFNW1FdZ/GWuw761dq9OVc1Dsk24tAsEdHFYbgjItk0HZJtxKFZIqKLw3BHRLJoPiTbiEOzREQXh+GOiGSxO7NofLCfe07j1zabQ6NSCTZBgGP/0ZIxDHdERBeG4Y6IZDFxaOT30tL49Y1PL97/zJ1jb44N90mVsSwioh6P4Y6IiIhIQRjuiIiIiBSE4Y6IiIhIQRjuyGXotWpTvcVmkLsOIiIiZ2K4I5eh1ajrLVabXu46iLoDu8Oh3ppeNNtitevkrkUuKpVg6R3suTMi0Hi0K7ZXV2/z3nG46AqHA0JXbK870mlU1bFh3tsDfdzynbWNbYeKZpvMNjdnvX5PwHBHROSCyqvMIQ+8tnqe0ei6+0Cb1WarM5nVO967uUvC1rr9+Tf+/f31b7tym1dX10E6I/6rJ2cMcdY2fv+fVd+6chtLGO6IiFyQw+FQadRqDB8SI3cpsjGoUbT/YJa1q7Yntbm3lzsSBvXuqk12Ox5q246q8qqTzt6OK7+vJQx3RERERArCcEdERESkIAx3RERERArCcEdERESkIAx35DIE6XhmuO4UBERE5BoY7shleLhpK2vqLF5y10FERORMDHdERERECsJwR0REbXIUf4H5T7yMPCsgBN+GG557CKHqtp5Rjcx3rsCibRVwCP4Y8shSTB6oPfu1hAmY/vpr6N+OuWabbv8cghZaD3/4RCYiJuVmDB/dH249/OALtnfXUHI7M9wREVG7OYpX4dCR+xEa18ZVy2o2ISO1Eo7O3rhghFd4GPRNd3J2E+rK8lGcvhjFh1YgffdjuPqe2fBXyN6N7d01lNbOPfzHQUREXUXwDYOxohBHtu7GuLjkVnYgDtTtX46sOjcYfdWoKe/EAjSJGPtEC70i9iqU7nwHKz75GgW7/43lyxNww4xYqDpx03Jge3cNJbYzwx0REbWLKjAJkfrFSN+zDCduSEaMvoWVHGU4tm07zLohiI5KR2Z5VxTmCf+Rj2BG9RF88vl2FK3/EUXTHj7PEFv3x/buGkpsZ4Y7IiJqpxj0GhyK9FXrkHGgBjGJHueuUrEeGYdqoemTgghDKg532W5GBc/B4xCo3o78skwUVzsQ6t1DDwb7Bdu7ayivnRnuiIioXRw2IHBoCjxXz8PxbRthGj4VhrP2M3ZU7VmOXLMOYYnj4H74rS6tT3DzxOlOFxMsZunIqJ4aNk5je3cNJbYzwx25DL1Wbaq32NpxDhMRtcjhgDp2KvoGzMeuA8twrHoKBng22dE4inBk+x5YtYnoNzwYwuEuLq/iJKqlfZ/aFx7GnnoEWBNs766hwHZmuCOXodWo6i1WexunQhHReWkGIW5EFPYs2YaMPWUYMN7/l4ccJatx+IgF2oFTEestIK9LC6tH4ZYVKLUL0MQmIdTQpRt3HrZ311BYOzPcERFRB2gQNPIy+C39ADnb1qBq3Byc7uSwo3znChTa3NF71AS4d9UIncMMU2kGste/g/XLjsIuhGDA9BnosYd/nYPt3TWU1c4Md0RE1CGqiKmIi/wImw4vQ2bJbAwPVIn7wGxkbk+HzW0i4oZ4i2tZOn/DlnVYet8wLG3tcU0I+lz/CiY2bF852N5dQ0ntzHBHREQdo+qNfiP7Y+u3qcjYmYNh03sBBauQkWOHIWkaoj2c1L0heMGnVy+4NT3sSKWBxs0P3lFJiE2ZiZiQFs507OnY3l1DQe3McEdERB2kgs+IqQhZeAAF21aibOodsG9fiVK7D+KTk9HSNGGdQjMMox9t36WdlIXt3TWU084Md0RE1GFCwKWI7/sG8g5vwPGisTDvPgaH90zE9VdQT043wvbuGkppZ4Y7IiLqOCEYscmJWH9oF7LWL4G5wAHj+GmIdFr3hotje3cNhbQzwx25DAGCw+5w9ODJmIi6EwEew6Yj6uutyF67EHZHCBJGDeNOxWnY3l1DGe3c0+olumAebtrKWpPFU+46iBTDOA7xAz1wdGcVhKBrENenA9NIWndiw9NXY2trx6hrR2D8X59Anx7WY+JUbO+uoYB2ZrgjIqILI3gjOjkFhl0r4JY0BSEd2aM4alBdVNP649peMNsvukJlYXt3DQW0M8MdERG1SQi8Gde/f3OLj+kTn8d9Hz7fwiM69L1nMx6+p/2vdSHbVyK2d9dQcjsz3BEREREpCMMdERERkYIw3BEREREpCMMdERERkYIw3BEREREpCMMduQy9Vl1nMtvc5a6DiIjImRjuyGVoNSqz1WbXyl0HERGRMzHcERERESkIwx0RERGRgjDcERG5IkGwW202GDSOHLlLkYvgsJfXmCyRXbU9tUowWy02i9jmhV21zZaUVdYHGd105TqtYO7qbZtNFmu9xWZw9nZc+X0tYbgjInJBnm6aUun2YPoJi9y1yKXOZA32MGgru2p7fcO9NtXU1WvlbvNak7VCr1XXq9WCtau3XVhaM+KSxKjvnLkNlfjBRe42lhvDHRGRC9Jp1aYd790syF2HK+kd6p3ONne+be/epJa7Brkx3BEREREpCMMduRSpu95ud6hVKsEmdy1ERHL4bHnanycOi1wYGeR5RO5ayDkY7siluBs0VbX1VqPRTVshdy1ERHJYvy931uA+gVsY7pSL4Y6IiMhFOBwQpA+4ctdBzsVwR0RE5CLSs0uTistrw+Wug5yL4Y6IiMhFrNp1Yk5FjdnPYrXr5K6FnIfhjoiIyAVIQ7KrdmbPkU4qO3C8ZNSI+OA1ctdEzsFwR0RE5AKkIdmC0ppo6f8ZJ8qGy1wOORHDHRERkQuQhmQb/7/lYMFUs8VmkCazlrMmcg6GOyIiIoVrHJJt/LrWZPHcfDB/2sShkd/LWBY5CcMduRSDTlNbV2/14Dx3RORKmg7JNlq988QchjtlYrgjl6JRqyw2u53veyJyKU2HZBut3583k0OzysSdHBERkYI1H5JtxKFZ5WK4IyIiUrCWhmQbcWhWmRjuiIiIFKylIdlGHJpVJoY7IiIihWptSLYRh2aVieGOiIhIodoakm3EoVnlYbgjIiJSqLaGZBtxaFZ5GO7IpahUgk26rqLcdRAROdv5hmQbcWhWeRjuyKW46zXVtfVWo9x1EBE5W0lFXejAaP8d0tL0/uyiyrhAH/c86e9h433l1fUBXV8hOQvDHRERkQIF+rjlv3D3uOua33/Xv1ZsuOPyQc8PjQ3cKEdd5HwMd0REREQKwnBHREREpCAMd0REREQKwnBHREREpCAMd0REREQKwnBHREREpCAMd+RS3PSamrp6q4fcdRARETkLwx25FLVKsNrsDr7viYhIsbiTIyIiIlIQhjsiIiIiBWG4IyIiIlIQhjsiIiIiBWG4IyIiIlIQhjsiIiIiBWG4I5eiVqusNpud73siIlIs7uTIpbjpNDV1Zk5iTESu62+3Jd8Z6OueJ3cd5DwMd0RERC6kV4hXhtw1kHMx3BEREREpCMMdERERkYIw3BEREREpCMMdERH1KC98vfubHWkF4/U6jVnuWsh1eOiEE288cMkUN72mRu5azofhjoiIepQ9GUVjas22IKO3p9ylkAvZl5ETUVFT789wR0RE1Mn0WrU50MMdgf5ecpdCLqTU1z1f7hrai+GOXIqbQVNdZ7Ia5a6DiIjIWRjuyKWoBcFmczjUctdBRETkLAx3RERERArCcEdERESkIAx3RERERArCcEdERESkIAx3RERERArCcEdERESkIAx35FI0apXFarNr5a6DiIjIWRjuyKUYdOpak9nmLncdREREzsJwR0RERKQgDHdERERECsJwR0RERKQgDHdERERECsJwR0RERKQgDHdERERECsJwR0RE1EUcxV9g/hMvI8/ajpXVgzH++Y+RFKT69b76LBxbOx9pe3ahMD8PtbUm2FUG6L1C4RediD5jrsOQYTHQCa1vVwi+DTc89xBC1W1tvBqZ71yBRdsq4BD8MeSRpZg8UNvstVTwGPkCbr1nCtyFll/Ffux1fPLcx6gc8Dfc9fDsVtejzsVwRy7F3aCtqjVZPOWug4hcnOABY1AgtG2FHXUYDE0CmC1/IZa+9iIOF5vFx7zgHdEPYb3cIFirUJV/GPm7jyBv9/dIHfNPXPubKfBUtfyyjuJVOHTkfoTG6Vrfds0mZKRWwtHmN2FHzc43sCV9LC4d4NHmmtS1GO7IpagEwW53OFr5k0dE1EU0SRj35Gvo79bO9e1Z2PPRSzhcYoPn8D9hxm3XI8y7yS7cUY3Sba9jycffoXjzc1gdl4ArxwWjeXYUfMNgrCjEka27MS4uuZUQ4EDd/uXIqnOD0VeNmvKWSxLcvKAz5eHAvE8w6O/3IZiJotvgj4KIiKibc5SsR2ZWPaCfhJQ7bkKYsVlsE4zwT34c04sP4ouFmcjftQnVKdfAs9lqqsAkROoXI33PMpy4IRkx+pY2VoZj27bDrBuC6Kh0ZJa3XJMq5jok4mtsTvsS63++AtdeFnVOmCR5MNwRERF1c47qcpjs0mhuCDzdWotQagRMeRO/nWSE0djakGsMeg0ORfqqdcg4UIOYxBaGUyvWI+NQLTR9UhBhSMXh1qKCzR/xN9yGo8+9jdxF/0XGiH8j3ofxrjtguCMiIurmpOFUT7WAU6c2i8GrAhEDvVteUe8HY0u9cWc4bEDg0BR4rp6H49s2wjR8Kgxn5TE7qvYsR65Zh7DEcXA//FbrL2Y1A5E3Y8LExfh21c/Y+MMW9L5tDPTMd7JjuCMiIurmBJ9JGJTwNnJ2ZmPff29B5SW3Y+iYiYiMCICmI2HK4YA6dir6BszHrgPLcKx6CgY0Hbt1FOHI9j2wahPRb3gwhMNtvJTdDgfcETHzD4jb8SjSN76GHeOSkBLTxoka1CUY7oiIiLo7wR/xc19GZf0T2HIgF8eXPYfjy1+AxjMaIf2GIyJuBHoljEVYoMf5j3vTDELciCjsWbINGXvKMGC8/y8POUpW4/ARC7QDpyLWW0Bee2rznISxVybj2KdbsGfePAx87Fb48rQ1WTHcERERdTXrdqx7cia2tJHEhKDrMPOhWxHQGJQ8hmHkwwsQl7YYqRtX4EjqPpRVHkPuTmn5Flu/1MPYZxoSZ9+PYfGBaD1faRA08jL4Lf0AOdvWoGrcnDMnXthRvnMFCm3u6D1qQgfmpFPBa9yDSFq/C5syP8T6LVMxa2wQT66QEcMduRSNRmW2Wu0cM+iGjuaXD7rlmSW7Q/w9TshdC3Vv5dXm4MjIILnLuDiOOtQW56K2jVVUmnLYzrnXDd4DrkWKtDhMqM7dh9xDu5CbvhnHDqah+sgPWPfvbSi483+YMTqs1YClipiKuMiPsOnwMmSWzMbwQDEK2rORuT0dNreJiBsiHdNnaf/3o+6L4ddfi7R/fYljC9/G8aH/QIwH451cGO7Ipeh16rqaWksrRyKTnFa8cm1QTZ3FS+46qPv709sb14k3EXLXcVG0EzD99Q7Mc9cSwQBj5CjES8tl98FelYp9nzyOdbvzkTnvPRwf9hRiDK08V9Ub/Ub2x9ZvU5GxMwfDpvcCClYhI8cOQ9I0RF9AMNP2uxPjRq3AT1sXYcOSqxE1Z0gbvYfkTAx3RNQt+Bj1JdIidx3U/Wk0qvZcvMvlqDwHY9hvH0ZBxqM4VLULOblWxMS2tptXwWfEVIQsPICCbStRNvUO2LevRKndB/HJyWjjhNvWCT7oM/se9Nr3HLJWvYI9Yz9EosDeOzkw3BEREXVnjmqUpa1H9tECGJPvQN+gNvrD9EHwlCY4rjHBYm774mFCwKWI7/sG8g5vwPGisTDvPgaH90zE9b/wS4kJ/rMw/vKFyP3uAHbM/wn9rtYxaMiAbU5ERNSt1SFv2TP4+YAZXmXxiLx9bLO56X7lKN6DvFI7oI6CX6C65ZUaCcGITU7E+kO7kLV+CcwFDhjHT0PkBXXbNdIgYPJDSNh4N3alvoPN8ZdDw7HZLsdwR0RE1J0JgYi7/CrsTJ+HU+v/ioW6P+OSK6Yg2EvbZCUzqo/8hE2fvot8iwC3xGvQL+B8qUqAx7DpiPp6K7LXLoTdEYKEUcMuPhjoh2HUnGnIeGsxDi35EYZzzwohJ2O4IyIi6uZ0/R/EzFvL8OOXK1Gw8m/4YvXz8AiKhJenB1T2GtQWn0B5VR0cUMM97reYMfdyNL/8bIuM4xA/0ANHd1ZBCLoGcX06YzIBAYZh92P0oPVYtb8UdZAujEZdieGOiIio29MjYMJLuG3A1Ti4dhGOph9AcVE2Tp6sh13lBoN3BMKHD0fvUVdjcGIcDO0dChW8EZ2cAsOuFXBLmoKQzkoFQggGXjcXBw69gYLzHPtHnY/hjoiIqIsIgTfj+vdvvuDnawKTkTBHXDpxu/rE53Hfh8+38IgOfe/ZjIfvaf9rNaUKvwM3vntHByulzsBwRy7FaNBWFpXVRspdBxERkbMw3JFrEQQHHA5OvERERIrFcEdERESkIAx3RERERArCcEdERESkIAx3RERERArCcEdERESkIAx3RERERArCcEcuRadR1Zut9ou6LDYREVF3xnBHLkWnVZvMFptB7jqIiIicheGOiIiISEEY7oiIiIgUhOGOiIiISEEY7oiIiIgUhOGOiIiISEEY7oiIiIgUhOGOiIiISEEY7silGN20FdV1Fm+56yAiInIWhjsiIiIiBWG4IyKiHiXC323Hql0nog8dzpW7FHItYXqtuk7uItqD4Y6IiHqUF+4ed90LchdB1I0x3BEREREpCMMdERERkYIw3BEREREpCMMdERERkYIw3JFL0WvVpnqLzSB3HURERM7CcEcuRatR11usNr3cdRARETkLwx0RERGRgjDcERERKYzZatNLl1qsOX25RUdkkOcRuWuirsNwR0RE1E2VV9cHHM45NbS6zux9Jqx5Sbe/fG2yeFXVmn2qai0+0n1SmKsW7zOfObZYDHWZr/9x0gy5vw/qWgx3RERE3VRZpSn4/ldXr7yQ5ybFBf/80j3jr/Xy0JV1dl3UvTHcERERdVMxYd4Hh8YGbtx7pDilI8+7KiX2g8duHnGfRq2yOKs26r4Y7oiIiLqxa8b3fbe94U4lCPbfXzP08VunDvi3s+ui7ovhjlyKADgcDTdERD3DJYlR3708b+frlTVmv7bWc9Nrav75mzG3ThwWubCraqPuieGOXIqHm7ZSOiBZ7jqIiNpLr1XXTR/V+/N5azL+2No6Qb7uua/+fuLMfpG+e7uwNOqmGO6IiIi6qdzi6j4/bDhy5/LtWTe1tk7/Xn67Xrl/4qxAH7f8rqyNui+GOyIiom7EarNr1+3NvXLhhiO/O5xTNvTy5JjP3n90yrjnPt36fvNj76QhWGkoVhqSlate6n4Y7oiIiLqBxl66n7Ycmxsd4nXoqnGx718yfMJ3Oo26Xnq8+YkVt08b8NJ9Vw99QjqJQr6qqTtiuCMiIpJJ0166zJxTCZcn9/7s3UcmT+wV4pXRfN3GEyvq6q3GJ24ZdfcVY2I+lqFk6gEY7oiIiLpY8166q8fFvjdpeOSCxl66lkgnVtw4Of614X2D1w/vF7SuK+ulnoXhjoiIqAt0pJeuNXfOGPyMM2skZWC4IyIicqIL6aUjuhgMd+RSpGGNeovNTe46iEjZOqOXjuhCMdyRS9FqVGaL1a6Tuw4iUib20lF3wHBHRER0EdhLR90Nwx0REdEFkHrpvt+QedeiLcdvZy8ddScMd0RERO0k9dKt3Zt71cL1mb/LzD2VMCM55lP20lF3w3BHRER0Ho29dD9tPja3d6h3OnvpqDtjuCMiImpBS7107/3psgnspaPujuGOiIioCfbSUU/HcEcuRbrAtt3hUMldBxF1L0176Y7klg+RznhlLx31VAx35FLcDdqqWpPFU+46iKh7aNpLFxPqnXb1+L7vTRwWsZC9dNSTMdwREZFLOaeXbnTvT9//82Xjo4K9DstdG1FnYLgjIiKXwF46chUMd0REpFjspSNXxHBHRESKw146cmUMd0REpAjspSM6jeGOiIh6NPbSEZ2N4Y6IiHoci9WuW7cv90r20hGdi+GOXIpBp641mW3uctdBRBcm52RV7Pcbjty1aMux29lLR9QyhjtyKRq1yiIdlyN3HUTUfg29dHtzrlqw/sjvjuaVD2YvHVHbGO6IiKhbYi8d0YVhuCMiom6DvXREF4/hjoiIZNe0l65PmM/Bq8bFvs9eOqILw3BHRESyOKuXLr980IzRMZ9+8OiUcZFBnply10bUkzHcERFRl8orro5ZsD7z7sZeuqvHxb43YVjE9+ylI+ocDHdERNSl9h0tHusABPbSETkHwx25HJVKsNntDrV0K3ctRK7o8uTen8ldA5GSMdyRy3HXa6pr661Go5u2Qu5aiIiIOhvDHREREZGCMNwRERERKQjDHREREZGCMNwRERERKQjDHREREZGCMNwRERERKQjDHZGCjb1/nlWrUdvlrqOncYj//D312QuendVX7lqIiDqK4Y5cjpteU1NXb/VwhXnuzBareujg3mq56+hp1CpUb92V2UfuOrrSqqOb5+7ZsvNlk9ZWJ3ctF8soGMyjIhIWjRkz5gG5a2nNvc9/e6CixuKrUqHHf/hS6T1Ln7wj5ZY+4T4H5K6lUUlJydBNmzatdDgcJrlr6QzBwcHpycnJ0wWhfZPvM9yRy1GrVFab3e4y732DQSd3CT2ORtzhehi0lXLX0ZXySwqSdHUq/3nCRrlLuWjDNLEnfQ+73d6dw93OrPqBA7xL4Ka2yl3KRcuojPDOzCsf0p3CXXV1dYxKpQo4fvy43KV0CrVaHWG1Wo1abfs6JVxmB0dERG1L1Z7ALu0xucu4aJ7uXhVT1cO7dY+Nh9ZuDXWr1igh3GkDjKly19CSuro6nDp1Su4yOkXfvn079GGT4Y6IiIhIQRjuiIiIiBSE4Y6IiIhIQRjuiIiIiBSE4Y6IiIhIQRjuyOWo1YLVZnPwvU9ERIrEHRy5HDedpqbObPWQuw4iIiJnYLgjIqILc6wUWFgMpNcBtQ7A2wAM8wdmBwH+QgdeyA5sLwJWnBJfsx6QZqjz0gH9fYArgoE+3FVJF8Wry9+LDRt24VD2SVSY7NAa/RHeNwFjx49CjPcFXIjGlI8dixZgxcES2EMvxT13jkOgqvMr7xmU1b78jSEioo7bfQJ4VQx2FjHE+YmhLkzcaxXUAqtzxceqgSdjgNB2BDyHFfgiE1gkPlcvBrohvmKwE+8vqAG2Foqhrwy4ux8wXu/0b6k7qz68GJ98swvFVgF6r0CEBmhgKi3CsV0rcfxwNq6Yex2G+7c/gNTlbcOiBauQVmoRYw3g6tcoVFr7MtwREVHH1FUAH5QAVi1weywwzR2QcpzFDHx6BFhZDnxcCjwecPr+tmQUAIvFYOflAzzdWwyEjV0b4i5xe7YYIMXX+VgMjAl9AG+nflfdV30m1izejWKbEf2m3YhrRobBILWrtRyHln+Jb3cexvJl+xB703B4nTdPW1C4YyHmL0/HKV04RqZ44dDmNFR3wbfRbSmwfRnuiFyQo/gLzH/iZeS1eOUjAYJKB51nMHyjRyB2/M0YOqw3dB0ZZSNl21IMlInhKyn812An0eqAWyKBfZlA6knghD/Qq603jvgauyoBu7hOSnCTYCcR70sS74sqA7KrgEN2YJRrjhlWH9yOA5UOGOImY9YoMXg0PqDxQfyUy5F49FNsO7oNu4qGYlLIedrIUY3jqYdRGzQC1147BfE1q5G52dnfQfemxPZluCNyZYIRXuFh0Dfb/zpsNagtyUXhvhMo3L8YaSn/xOy5l8Gzy/etNch4awqWVdyDuX+5Fd4MmOdYvOXYbRU1Zv9Lh0d9G+znnuP8LdqAvVI/hBoY43Nuz5zeKIYyMeQtNokhr14Md4YWXqOJGtvpWz/tuY8J4n3iJpAlBrtacYErhjsTso6cgAU69B8UD2Pzh7WRGBjnjR1bSnDk6ClMCPE/TytpEJBwFe4cMggBYvOKv+ouTpnty3BH5Mo0iRj7xGvo79bCY9YS5K97Gcu/XoGyjc9idb8EXJkSdN5Rtk5lO4aiHNPpY7CoRVkFlf0/Xnbw8de+2fXKoN4BWycn9frGqUHPJv48csSgpXIHolvazYnvkBjxDSWIwe64dGbEecJdiBgEYQWKzOJts+PqHBagXLxViXvJYBc9KsxeisKTFjhUoQgLaSEAiyE7OCwYaqEcJQUnxeh9nvAheKJv4iAnFdsDKbR9Ge6IZGa3O9Ti/tChEgS73LWcRROAsEv/iWllhzFvSRayN69F9djr4NmV6a4qAydLHc4Nd7Y6WBxu0Pbwv4YOB4TUYyWjpcWpQc8qhjDpZyIFLt9W3gx+utM9eiX1DSOvrX8iEB8YEwB8nw1sLgAmewC9mhxzt7MIOCHeRvgD/Vy029ZWgVOV4g9XDA3erXSdazy94C44UF1xClVic/m5aFNdEIW2bw//c0bUcW56TXVdvfWc3ne5nCyvDZ/7wvJtlwyP/G5yYq9vhvYN3NB9gp4OQf2HwrD0OOpOZqNSrMqzaQeKoxZlu7/AjjUrcSIrGzUmB9QewfDvMxbxl81FwoCQJmeJ2VD8w0344vuj8J7xCW6/duDZn4Dtmdj69E3YnBuOEX/9CiErLsVP2+pOP5b5H/zvN/8BtJdixhsvI+6XDh4Lqg99h+0rFiHrSBaq6mzQeoYjsP9kJFx+K/qFN53O0I7yZXfgk3lpCLr+W1zZazmWf/olTpwU0P/BFZgyuKVP7T2TU4Oe2dYwcwl06tb3IAbV6UBXd2bdtjrdAsRw94AYAt8Sg9xfDwCDPQEf8cmFNcAhExAuBrsHQ1x3b2Wph9kuJgqNvqHJWyLoxMfEW0e9CfVthmk6h0Lb11V/XciFqVWCzSb1lnUjpRV1Id/8fPh+afH3diucNCxyweTEqG+G9Q3aoBLrlbU4u61h/wyN9uww5qhC7nf34PslaTBrAhE88DL09tXDXLwPWfvnY+3+Vci+5X1cOan3BRwppYZvwo1IdGxC6o4MWHySMGhkf+g0feH3y0+uHsWrHsaCr7agRuWHoEGTMNBXA1PBLmRteQ+Ldq1D4h/fwYQBv55iqZYO+BdZK9Zgw/sfoEAXj7A4H3gbesBf6wvU6UHP4jjdG6cWWt/Jac78xC3t/IwSJf6MRlUDa8Rld9mv9xvdgWTxMT9XPNbuNIfVCmtDe6sbmrxFas3pxxrXpXZTavsy3BF1M1LQ+3bt4fukRf6gZ0J+6m7x06oAbUQcfJvsY62Z72Ll0nRY3BKR8ufXMTK6sZfMjpp9L2D+G9/h+Dcv48CQNzDEv6M7ZzUCRv8BKT7VyBDDnS1gPEZef/YJFfYTH2P5PDHY6RMw+pH/YnQfzzOPWFC57UnMf28Zdn/8Dno/8xiiGnr6pLOAVQ31VW9fAHXS65h742i4OzHXFZbVRB04XjrKeVsAsgor49u7bktB73ezhjyVPCB0Rbs32BjqbGdCXkus9l/XPZ9iMcw9lQVUiMH7+lhgnOfpYfiTtcCyXODbY8DOEODJcKClY0MVTnrPqhra29bQ5C2yWU8/1rgutZtS25fhjqgbkzXo2cpQsO5FrFibB4cqDPGTxuPXDq5aZK9fgnK7Cj4TH0BidNPhTxU8htyLkYOWYPn+HUjbmY/BUyM6eSTDjJyfF6DYqkLA9Ecx6pdgJ9HCa+RDGLVpHVYeWIoDqfcjKun0KLwgSFXYUVcfj0uuTHZqsJMUltVGrd6ZPceZ28gqrGh3uGsUG+6TemlS1DfSYQDRIV6HOvRkg/r0SavS8KwFUnOfq/bMcKyHpu0TXB3ievNyxDe6+P8b+gCzmqS3UPFnNlcMe5UHgS3S1Sv8gSvPc3KGEundYJAShbUe9dLURS3stRuHCwU3d7j1kPDRbSi0fRnuiHoIpwQ96x5s+ddt2NtsB+yw16JWOsauVvxrp/JF5FXPY9yAJgHOfgz5RyvhEMTHBsSfe0iV4IPw+Fio96Wi5NghWBHRYga4YOL2czNLxdAZjKjBfc/ND4I/ogb1gzp1PwoyM2FPGnbWOuqokQh3drITDY0N3CgtztzGWwv2viCdLXu+9S4q0DWl0Z0+ovyk+fRcdy21Y4n59G2Aru3jk2y1wAHr6TNvk1oIboK4ixouhrwt5cDBajH8GXrE8U6dSu0FH08BjvJKlFfZTx/P2Ex9Rbn4cUuAxtsHRldrn4ul0PZluCOXJQ1nvfvDvn/KXYfJbHXv6HMag96ybcdvvnp83/d+N3PwUwadprbDG3eIf9CyUhtmmziH4I2g5OsxfPJ1iO/T7PR/WxEqT0nTYQTDq8VL8qhg9AuCIDhgO1WEOjEDaDvzj6Jd3H6ZveGEjtxlT2PZunNf3FF6UgyfdtQU58OCYU0m2RD/SPsE9ZhP4Bej0wJdU2rD6TNaC03AcfEzRUTz3Yj4c8kU34oOsYH7nOetLfXcNZwzI66raeUH0ji0a5L30FPZqAIbpugQykqQX1APBDYfm7aiILcQNocKoeGhnfshyhUotH0Z7shl+Rj1JZcm9fpG7jrKq+sDNqbmz2jv+kY3bcX4hIgfpR32qIEhK3Qadf0Fb1w7AdNfbzbPnSMf+/9zPVYdrIMjcDz6NQ92Els9rNIZZoJeOs+iRYJW3/A8q7mu4Rj8Tu1xsZtglY5sdpTj5O5FONnGqoKppmH7v07ULECl7Sl/ojvOKYHuLGKYT/QEtpUDG8UlpdklxmoqgZ0Wce/iAQzXtf1S0nQqUi+gtFM9IYa3kOYfFMQf3Im608f2Behdr9eugR7R/XpDl5aB4/vTUDk48exLYNUdwf5D1eKPJRxxfb1ds4kuijLbl+GOXJYU7qRhTbnrkA66f+k863i668qlQCed4XjRge58hDAMvO52HHj2/1C4/CXsHvk/jIxoFobUYqg7c5yK1dzyyzgspobDrqSQ157j6hue42jnqWgqA7RSV6BjCCY89yESg1z3bEqJ8wNdMyODgG8rgH35wGLxk8EMj9PBq94EfJALiA8hWbqcWNMzYMS37LdiDK8R75scDkSKt2p3YJQB+F4McN+Ir9U34uy583JLgDWm01eqGOPZvAqX4dF/FBLWHcaOoz/jxy0huHZ0+OnjXy0l2Lt4OVJrxHUGJGNYQJPfA3sZ0tZtQ1adBuFJlyLBxX9H2qLE9mW4I5ejUassVpu923fdNAY6KYCOHBCy0qmBrhl15E0YP3ERvl15ANu//A79/nQDfM46aC0U3tL0FIWFqCi1ijvx5j00dlSVFMHuEKDxC4VHw/5aOHNCgwMOWwtTZDgqYaptb7gTty+dgZt3Zni4m/1h7Uq/vWLQM/dfM/QvXbpRgxi07hYD3r+KgM8zgKViwPMXf7b5tWiY5TUiELjD9+yeNof4KWBdMVAq/qwSpHAn3SmucGUvIP0IkCEGv4fEVDhQDIpS10mZGPgOiq9nFdefHAUkdqvZi7qWrjcmzRyNnK8248jK/+HVbUEI8lajpqQQp2rt0AQm4crLB6HpaU3S71P23h3YXqlHQuykX8KHPW8Dvlh0EDWNv2qWKlSK/7cXb8e89w7+EgrUMZfhjil9XCMkKLB9XeLnRtSUdGzahRzn1hXkDHRnc0fEzAcQv+NPSDv0DtZunogrU0J+3VerYhAe6wOh4BRyDqTBNmjo2SdVOEqQk3YEdkGL4H6DfvlDo3PzON3BU11xziwajpP7UVDeyrxozWfdUEUjvG8AhJxiZO0Ttx83pNlJHQ6YT2xAtqk3omIjoVdw9rugYy07w8AI4Bn3071xB8UgdlS8z1/8epIY7K7yx9l7wjaI7wn8vT+wWgyKmyqBtHI0nJroIX5gGBgAXBoMjHDBEymacet9Geb+Nhgb1m3HweOFyMtTwc0rFPHDkjB+3FCEtvNEYoe5EsXih7LK5r+AYggpKaz65UuNn6nVmW6USGnty3BHJDOtRmWeMTrmU/kDXTPGCRh71Wgc+3gTjn/3GjKHvIB+vxyMYkDUxFnw2/wxyta/gV3J/20yz50VVTv/ix3p9RCMl2LwiOAz+2UVPMJjYBB2ozZzKwrNKQhv7PCzFyB9wXyUNNuDCxpdw5Cu/VQ+qm2Azy9/sXSImHA1Ate/i5NrXsLmwW8ipb/vL8+2Fa/Amrf+hrSScCT+ZT4mxJ7n2C+6MFF+wMN+7VtX7Qm8Nbzlx6QzcKdGikvnlaZE+uAhmHyduLRnZXU0pj/0D0xvfnfvGXj4yXYf4utSlNS+DHdEMvP3cit86o7Rt8tdx7lU8Bz7IJLW78LGoyux/rsrEDU35Ze57tQxv8WUq/Zh4YLd2PjCbBwdPBpBXkBdwW5kZ+SgXtsbQ+74M+KaHJ2s7jsLA8N+wPb8r7Ho5VoMSewHg+0kCnctQq7XzUiM/z9sS3f8cuydKiQOAToBFWULsOTZbAR6GtFrzgsYHqWGKmoupl63Hwu+3oIdL1+No3EjEBJohL0iE3npaaiyuCFo+l8xqg+DHRG5FoY7ImqdOhbDr78OaS99hrKNL2Pr6GGYGN/YQ+eB0Cvewk2RX2H7qmXIPrQcJ+vt0HhGICj5LgyefgviI5sdBK8djNEPvQL1/PeRdnAJth1dDJ1vX0SOfhxzZo3GyffehjQzrs16Zn3PKRh383ZUfbsCJXl7UeiXhOhfzs7QI/Cy18Ttf4edKxbj+JEtyMioh+AWAN/YmRhyyVwMH967c6dgISLqARjuiFyQEHgzrn//5natq+n7EOZ+8FArjxrgk3AHpohLe6n9x2H0veLSwmM+92/Fw2fdo4Nfyj9xS0pr0xFq4Rl/AyZJy3m3LMBj4jt4YGK7SyUi6pEY7oiIiIgUhOGOiIiISEEY7oiIiIgUhOGOXI67QVNVa7K67nT3RESkaAx35HJUgmC3OxwKntaWiIhcGcMdERERkYIw3BEREXq5h2aPNMdiSHDcOrlruVhuJo3PqVOnBsldR1tqLCpNufvAPXDXVMpdy8XaeqB8wozxeEvuOppyd3cvcXNzw5gxY3r8+1liMpkmdGR9hjsiIkJSTMKXPnYPweFwKGLaZ++h3ply19CWF+4ed11ecXWM3HV0hgFxWDIyPmS13HU05e/vv2PgwIGP2O12rdy1dAaNRjNPq9VWtHt9ZxZDREQ9g4eHR15CQsK/5K7DVUjXkpa7BiVTq9V1MTEx/5G7Drkw3BEREREpCMMdERERkYIw3JHL0WhUZqvVrpO7DiIiImdguCOXY9Cq60wWm5vcdRARETkDwx0RERGRgjDcESmczmbqlvM8Wax2jVajsspdR0ssJpu6us6SIncdREQXguGOSMF+N3PIU/UWa7ccgt6YmjcjZXD4YrnraInDAeH31wxbJHcdREQXguGOSMHumjn4ablraMmJosp+nyxLe+zf9064JjLIs1tPNktE1NMw3BFRl1uxM/t66XbVzuw5d1w+6Hm56yEiUhKGOyLqcmt2nbhWul216wTDHRFRJ2O4I6IulV1YGZeZWz5E+v/hnFNDc05W9eXQLBFR52G4I5fj4aatrKmzeMldh6tauSv7uqZfc2iWiKhzMdyRyxEgOBxwCHLX4aoah2QbcWiWiKhzMdwRUZfJKqyMbxySbcShWSKizsVwR0RdZtWu7Dkt3s+hWSKiTsNwR0RdpvmQbCMOzRIRdR6GOyLqEnX1Vo8xg8KWSov0dWFZbaRaJdgCfdzypa/rLTY3vVZdJ2+VREQ9H8MdEXUJN72m5vfXDHu88eu3Fux9wcNdWzF32sAX5ayLiEhpGO6IiIiIFIThjlyOVquqt1jsernrICIicgaGO3I5Oq3aVFNr8Za7DiIiImdguCMiIiJSEIY7IiIX8ep3+z9NPVY8UiUIdrlrkUuwj/7gI9cn3u/naTjZFdt79P0t60sragOlK+N0xfa6o9hQ4/pHbxxxv0ol2Jzx+u8vSXtz84H8y9QqlVNevyfwM+qOPnjt0D+GBRiPS18z3BERuYiV24/Nsgsqbz9fT7lLkc2K7Vn950zs93pXhbufdxwbFxURCL1e2xWb65a+W5fZ//fXDHvM6KatcMbrr9qZfWVpZX1EUKDrHm1zcF9O30uGR4xmuCMicjFuBl29l48nXDncqa31+7tye2KbW0ODfTWuHO7y84srnfn6Oo3aGhrii6AA1w13vnpsb/o1wx0RERGRgjDcERERESkIwx0RERGRgjDckcsxuukqikprouSug4iIyBkY7oiIiIgUhOGOiIiISEEY7oiIiIgUhOGOiIjO4ij+AvOfeBl5VkAIvg03PPcQQtVtPaMame9cgUXbKuAQ/DHkkaWYPFB79msJEzD99dfQ361j2z+HoIXWwx8+kYmISbkZw0f3h5twId9l98I2dz5XamOGOyIiapWjeBUOHbkfoXG61leq2YSM1Ep0+vW1BCO8wsOgb7qTs5tQV5aP4vTFKD60Aum7H8PV98yGv4L2Zmxz51N6G/fgHw0RETmT4BsGY0UhjmzdjXFxya3sMByo278cWXVuMPqqUVPeiQVoEjH2iRZ6RexVKN35DlZ88jUKdv8by5cn4IYZsVB14qblwjZ3PldoY4Y7IiJqkSowCZH6xUjfswwnbkhGjL6FlRxlOLZtO8y6IYiOSkdmeVcU5gn/kY9gRvURfPL5dhSt/xFF0x4+zxBbz8A2dz5XaGOGO3I5eo3KVG+1G+Sug6j7i0GvwaFIX7UOGQdqEJPoce4qFeuRcagWmj4piDCk4nCX7VZU8Bw8DoHq7cgvy0RxtQOh3j3wQLBzsM2dT/ltzHBHLkerVddbLLaWPqsRURMOGxA4NAWeq+fh+LaNMA2fCsNZ+xk7qvYsR65Zh7DEcXA//FaX1ie4eeL0L7IJFrN0ZFRPDBpnY5s7nyu0McMdERG1zOGAOnYq+gbMx64Dy3CsegoGeDbZ0TiKcGT7Hli1ieg3PBjC4S4ur+IkqqV9n9oXHsaeePRXC9jmzucCbcxwR0RErdMMQtyIKOxZsg0Ze8owYLz/Lw85Slbj8BELtAOnItZbQF6XFlaPwi0rUGoXoIlNQqiSDrRgmzufwtuY4Y6IiNqgQdDIy+C39APkbFuDqnFzcLqTw47ynStQaHNH71ET4N5Vo3MOM0ylGche/w7WLzsKuxCCAdNnoEce+tUqtrnzKbuNGe6IiKhNqoipiIv8CJsOL0NmyWwMD1SJ+8BsZG5Ph81tIuKGeItrWTp/w5Z1WHrfMCxt7XFNCPpc/womNmxfWdjmzqfkNma4IyKitql6o9/I/tj6bSoyduZg2PReQMEqZOTYYUiahmgPJ3VvCF7w6dULbk0PO1JpoHHzg3dUEmJTZiImpIUzHZWAbe58Cm5jhjsiIjoPFXxGTEXIwgMo2LYSZVPvgH37SpTafRCfnAynnXquGYbRj7bv0k7KwzZ3PuW2McMduRyh4VypHnj+PpGMhIBLEd/3DeQd3oDjRWNh3n0MDu+ZiOuvkF6cboht7nxKbWOGO3I5Hm7aypo6i5fcdRD1KEIwYpMTsf7QLmStXwJzgQPG8dMQyRkjnYdt7nwKbWOGOyIiagcBHsOmI+rrrcheuxB2RwgSRg3jTsSp2ObOp8w27un1ExFRVzGOQ/xADxzdWQUh6BrE9dG1/7nWndjw9NXY2toBEdoRGP/XJ9Cnh/eYdDq2ufMpsI0Z7oiIqH0Eb0Qnp8CwawXckqYgpCN7EEcNqotqWn9c2wtm+0VXqDxsc+dTYBsz3BER0VmEwJtx/fs3t/iYPvF53Pfh8y08okPfezbj4Xva/1oXsn2lYps7nyu1McMdERERkYIw3BEREREpCMMdERERkYIw3JHL0WvVdfUWm0vMv05ERK6H4Y5cjlajNlustg6c605ERNRzMNwRERERKQjDHREREZGCMNwRERERKQjDHREREZGCMNwREbkIu81aX1VemRvipT0qdy1yOZRdOqErt1dnMmvsppo9Oo2hsiu3253U1Fmc2uY6jVBWVFruEeGrT3Pmdrqz9Wn5E2aO6f1W49cMd0RELuK+KxP+fDCrdKRGLVjkrkUuN1wav7d3qFd6V23vgTnD/1RWaQpWCXDZq7jeNnXANneDpspZr3/njIF/3XqwYIpWozI7axvdnfS+HhobuLHxa4Y7cjnSH1m7Ayq56yDqapeN6DVPWuSuw5Xccln/V+SuQelGDwxbJi1y19GdMNyRy3E3aKtqTRZPuesgIiJyBoY7IiIiIgVhuCMiIlIwu8OhUgmCyx7z54oY7oiIiBTsu7WZ986Z1O+t869JSsFwR0REpFBmi83w1sK9z08YGvFDkK97rtz1UNdguCMiIlKozQfzp9WYLF6rd5249sbJ8a/JXQ91DYY7IiIihVq988Qc6XbVrhNzGO5cB8MdERGRAklDsuv3582U/p96rHj0yVO1ERyadQ0Md+RyDDpNrclsdZe7DiIiZ5KGZBvn9HQ4IHBo1nUw3JHLkS69ZLU5tHLXQUTkTI1Dso1W7sy+juHONTDcERERKUzTIdlGB46XJHNo1jUw3BERESlM0yHZRtLQrHRixU2T41+Vqy7qGgx3RERECrNq54nrWr4/m+HOBTDcERERKYg0JLthf94VLT3GoVnXwHBHRESkIC0NyTbi0KxrYLgjIiJSkNaGZH99nEOzSsdwRy5HrRJsNrtDLXcdRESdra0h2UbS0GxRWW1ksJ97TlfVRV2L4Y5cjpteW11XbzHKXQcRUWdra0i2UcOExrtPXMveO+ViuCMiIlKI8w3J/roeh2aVjOGOiIhIIaaP6v35xGGRC5vet/NQ4STpDNnLR8d81nifIHXgOSAIAhxdXyU5G8MdERGRQowdHLak+X3l1fUBYpjD5MSob2QoiWTAcEdERESkIAx3RERERArCcEdERESkIAx3RERERArCcEcux02vqamrt3rIXQcREZEzMNyRy1GrBKvN7uB7n4iIFIk7OCIiIiIFYbgjIiIiUhCGOyIiIiIFYbgjIiIiUhCGOyIiIiIFYbgjIiIiUhCGO3JJjdOhSLdy10JERNSZGO7IJTVOZGx001bIXQsREVFnYrgjIiJSMKNBW+ljNJTIXQd1HeWHO4dFW1WRH1tSkjfoVHlxTPGp8t61JpvRVF/nbbYKaoul3sNkEXQ2m0VfUy8YAJu6qk7lbneoHB4G1GpUDrtep6vVa+wWjUZX56aDSaXW1RsNqmqdwavMz9snO8A/OMPPLzzN18c3WyUIdrm/ZSIiokbTRkV/IXcN1LV6fLizmcsC806kXnLsxPFx2QUlg/PKrKGl1Q7fUzVqj5M1HvpTJg+VVmVFoNsp+Boq4W+ogKeuBgaNGTqVBVqVDZ6aeqjFTBZlqGt4TU+vGljtaphtWtgcatSLt/UmHSzifVVWvXifCjkWN9SJ/y+v90JJnQ/KTF6oqPeEr1ut1detvj7Q01rlZ1SVB/sZs3uFBu2Ljopd3yuq3zp3vaZa5iYjIiIiBesx4c5cmx919MjeWVl5J5KP5ZcPyC62RWSVuvnlVfupg93LEO2V37D0MxYj0PcU/MQgF+B2+lavNndJjXYx9IkhT1Nm8tYU1/l6nDJ5huSfCozfkB029YsVqY9mVYaL4c9kjvavL+0VpMvuHea/v1dEzKa4voN/8nTXn+qSIomIiEjRume4s5t1BSc2z9p94MC1B7NPJaXlayOPngrWRRiL0Mc7F7298zAlrAC94/MQ6VXU0APXHagEuxgoyxuWfr7Z5zxudwgorAnQZVeFhh4tjwjNOBiSvHRzxO8yy/c5AjzMdQMjHMcGRAdtSRiU9FVcdK/1KpVgk+HbICIioh6se4Q7h01dkrdl+tY9u+7Yebhi9O5cnxCLXS0MDTyMwQFHMHXoUcT5ZjUMpfZkKsGBMGNxwzI6dP8v99sdKuF4RZh7WlnMoIMZfQYt3HDsrhKTvy0hsj57eL/gtaOGj36/b1TYVhlLJyIioh5CtnBnt5T579+z9IFN+49es+WIIa6wxlszIvgokoLTMHdSesMQq6uQevz6+OQ2LDNj1jfcV2byUu8+2T9mZ+aAmAUbTtxR7zDWj+kr7E1JTPhk1NBhnxp0mlqZyyYi6hILNx1/7PlPNr8odx3keh69ccTv50zq95bcdXRUl4a7hkC3+6eHV+88etPqw8G9vPVVQkr4Qfw5cW9DD52KJ5r+QjpWcHLUtoZFJORUBRs25g1L/mbR0eSnPk19M7mPLW1y8tB3xyYO+4hBr+Pc9NrqunqLkfPcEXV/JrPVzc/XE4P6R8ldCrkQVX3N2pp6i6fcdVwI54c7h02dm7l07uL12x/+6UBgfy99tTA5aj/enbwNkZ6FTt+8UkR6FuHG+GUNS6XZqF6bkzj4h2VH3nz2iwOvTxyg2jbrkvHPDo3rvUwQ4JC71p5ArRJsNrtDLXcdREREnc1p4c5mKoj4+efPXpu/pX5mdrm/blr0Mbw28WPE+uQ4a5Muw0tXjVl91jUs0vDtsqyxY/71YdEiE3xrrhrb6+OrL5v4pJe7jmffEhERuaBOD3dVxTvHf7/sp1fn7/YfFm6sFG7otwLjw3dDo+KJn84gDd/eFL9UWlQHS/t4fpt+6R+uXpV772UJ7mtuvGLag71CfNLlrpGIiIi6TqeFu8qirZd++eOPb3+7v1ffsWEn8fL4TxvOcKWuM9D/aMNSapqn+S7z0il3PV+VmtTXY/td107/Xe9Q3wNy10dERETOd9HhrrbsQNJn333xpRTqJkaexGfTPkCoR3Fn1NZu9gJgwm3ARhXw2QLgFo92PMkKPHoH8O984HcvAe8mNXst69mrq9SAhycQHQWMHg7cOA2YGNzp30qnkK7C8bvBC3Br/8XqbzMnj773xao9w2K9t913/Yy5kUGeR+Suj4iIiJzngsOd3VwctGjR/339zrqAScODqvDptL+LoU5B1yUWg2KvaMBHOP2lwwaUlwEHU4HU/cD7XwJTbwQ+FINgqErWSlvlpqmXAh6u7btK88Wh6WPnPlObNmt02Ne/ueqSP3q668rlro+IiIg63wWFu2P7P33in1/nPg2HoHlp3GsN05gojtgyz/733F7AshPAvO/Fx34Cln0KTCoF1j4EhHTTgCeRQt6dg77HVX3Wat/ef90t1/61cPafbxpz9+QR/T6XuzYiIiLqXB0Kd9aa7JiPv35r+fy9vWPvTViNq2J/hqvNvOEXBdz7R2BWEjDlaSBtCfCHocD8SwFB7uLOQ7os2t9HvSeklqxxf/bb+/63fHPqPY/NvXxOgLdbgdy1dTWNWrBYbQ6t3HUQERF1tnaHu8KjP8194sP97xs1guaL6X9FoLtrz7QRPgb45Dpg7BfA9+KydyIwrIfMmib1tH4+9VHde6mzx9zyVPXhp+6cPCd5YPgyuevqStLEzyaz1V3uOoiIiDpbO8KdXbVl1YtfPv2jz/U3xm/DbQMWuVxvXWsSrwImfgOsOCEGvCwx3PWRu6L206qsuD9hnjAqJNX4jw/M3185YfAbv7sy+VFOgkxERNSztR3u7HVu3877x+b3t/Qe+vJ46di6zC4qq2cQfIFJvcVwlwHsOgI4+nT/odnmpGv5fjHtT/o/bfzL77MKTg14+s4ps3VatUnuuoiIiOjCtB7urBXeb77/z7R1R0PCPpryFMKMXTu9SY+gAqIDxUB3CCgsEbOweFcPGZk9i6++Em9P+ofh6W1/uPT+l+u2vPrgzIm85ioREVHP1HK4s1V5/ve9Z9K2Z/uF/W/K0/DS1XRxWT2HXnf61mJBjx7P1KkseHb0q/p/7art/8dXhfVvPnxFirtBWyV3XURERNQx54Y7u1n3wUdP7duaHRD2zqXPM9i1RUxzFdWnQ53Ro6Ejr0eTDrd7NPFd/Ys7Vf0efF29+q1HrkjRalRmuesiIiKi9jsn3K1a/MyiHw9G9v5o6lMNF6inNtiAtDw0HGgXHdLzw51ECniPJ71teHRzQNyLn/t+8Pe5426TuyYiIiJqv7PC3fHUzx5/cUXEZf93yQsNl7CitllPAMsLxECkBVL6y11N55EC3jMjX/S6Y03ozG/Xhdx77YS+b8tdExEREbXPL+HObioI/+dXJ565P2EN+vlmy1lTz+AAFs8DDtoAj+HALD+5C+pcBo0ZLyb/0+eu771eHDMwdFlYgPG43DV1Jul4wlqTxVPuOoiIiDrbL+Fu/oK3fnBTOzTSVSfo/I4sB36/SgzFauDOW4BwJYzJNtPLq6BhXsMXPgt8/42HLpvsjG3UW2xuWw7kT5s4LHKhM16/NSoBdrtDESPpRNTNOYq/wPwnXkaetR0rqwdj/PMfIymoyZ+n+iwcWzsfaXt2oTA/D7W1JthVBui9QuEXnYg+Y67DkGEx0DWbi6vpdoXg23DDcw8htM0pHaqR+c4VWLStAg7BH0MeWYrJA7XNXksFj5Ev4NZ7psC9lbm/7MdexyfPfYzKAX/DXQ/PbnU9cp6GcFdbljrio61hidJwLOewbVt1IfDlPODvPwInxaZKugn45xC5q3KeG2Pney1YPjVhx6HCS0bEh6zprNfNOVkVu2B95t0/bjr6G4cYsro63BERdTnBA8agQGjbCjvqMBiaBDBb/kIsfe1FHC42i495wTuiH8J6uUGwVqEq/zDydx9B3u7vkTrmn7j2N1Pg2cpHVkfxKhw6cj9C43Stb7tmEzJSK8+TAuyo2fkGtqSPxaUDPNpck+TTEO6+WfTNuyNDStHHJ1fuei6O+OnksXuAZ1v7xRE/gPzrTWCWW/te629/BF5ufC3x3V5XBWSVAGbH6ePspt0OfHYjoOSxPbVgw+8GzdO+/1PoUxcb7uwOh2rT/vwZ36w9fN+2tIIp0teNj9nsDo1aJbTncy0RUc+kScK4J19D//bsgyT2LOz56CUcLrHBc/ifMOO26xHm3eRQeUc1Sre9jiUff4fizc9hdVwCrhwXfM5k+oJvGIwVhTiydTfGxSW3MgeaA3X7lyOrzg1GXzVqylsuSXDzgs6UhwPzPsGgv9+H4A5doZ66ikaa0+77fX5Dnxnzpdy1XDw7kN9WPhU/sFTa2/9a2cfEpfFr8bdFKz4/JBoYnQTcPguYHtHzrkhxIaaEL/d+dfctg7MLK+N6hXhldPT5p6pMgT9uOvab79YdvqegtCa6pXUqa+p9fT0NnCmbiOgMR8l6ZGbVA/pJSLnjJoQZm+1xBCP8kx/H9OKD+GJhJvJ3bUJ1yjXwbLaaKjAJkfrFSN+zDCduSEaMvqWNleHYtu0w64YgOiodmeUt16SKuQ6J+Bqb077E+p+vwLWXRbnEfrCn0Rzc+9ODasEqDPI/KnctF0wVCmxY2cEniZ82/vWZuHTGaymcSrBjetyxwmXbs266e9aQJ9v7vNRjJcnfrj1836qd2deZrfaW/pz8orLG7Hch4a6q1uxTXl0fID2/oqbe/8ztr/+vrvevEG8ra+v9/nXP+NlBvu49vHuaiFyFo7ocJrs0mhsCT7fWIpQaAVPexG8nGWE0tjbkGoNeg0ORvmodMg7UICaxheHUivXIOFQLTZ8URBhScbi1C1jZ/BF/w204+tzbyF30X2SM+DfifRjvuhvNloMnZowNOyB3HdTNpQT97PPmwaRp5wt3JrPVffn27Bu/WZtxf8aJU8Pa+/ony+vC9Tp1XUW12V8KZg2hrPZ0OKtsCGvmxtszwU38v7iuu0FT5W3Ul3p7SIuuTLr18tCXeRt1pRFBnkcGRvtvlx73Eh/zMepLLr4liIi6hjSc6qkWcOrUZjF4VSBioHfLK+r9YGzj47PDBgQOTYHn6nk4vm0jTMOnwnBWHrOjas9y5Jp1CEscB/fDb7X+YlYzEHkzJkxcjG9X/YyNP2xB79vGQM98161o0nKscbOiOjzSRi5mkOfGkGN5d3lZrHZdS1etyDlZ1ffbtYfvXbT52NzKWrNvR1//T/+37ntPd2356ZAmhjMPXWljaJN62/pG+O4/HdzEAHcmrEnr8Tg9IlIqwWcSBiW8jZyd2dj331tQecntGDpmIiIjAqDpSJhyOKCOnYq+AfOx68AyHKueggFNx24dRTiyfQ+s2kT0Gx4M4XAbL2W3wwF3RMz8A+J2PIr0ja9hx7gkpMS0caIGdTnN0TJvz96D8+Sug7o5ad47P091WUFpdXRUsNdZv/ri3w1BOvtVrVZZwwONx6pzTg212x1tnnDf3J9vSPrjFWNiPu7Uotug1ajNFquNf42IqPsS/BE/92VU1j+BLQdycXzZczi+/AVoPKMR0m84IuJGoFfCWIQFepz/uDfNIMSNiMKeJduQsacMA8b7//KQo2Q1Dh+xQDtwKmK9BbQrEXhOwtgrk3Hs0y3YM28eBj52K3w5uVS3oakx61Xeel5mjM7Pz8NRKQ2LNr9fEOAYMyhsqbRIX0vHwe3NLB63/VDhpbsyiiYezSsf3PTM2JZcSG/fxdBr1XXSHHtduU0616HsssR0cZG7DureispqQh1KmKXLuh3rnpyJLW0kMSHoOsx86FYENP7F9BiGkQ8vQFzaYqRuXIEjqftQVnkMuTul5Vts/VIPY59pSJx9P4bFB7YxeacGQSMvg9/SD5CzbQ2qxs05c+KFHeU7V6DQ5o7eoyZ0YE46FbzGPYik9buwKfNDrN8yFbPGBvHkim5CU2fVC3o1rw1P56fRqM119Vbj+dbzdNeVj0sI/0lapK+lY+SkkLcr4+TEnRmFk47lVwxs/hzpGDpn1EzdV58In9R5P2f8Ib+kurfctVD3VlZVH2ZXQrhz1KG2OBe1bayi0pRLly1vxg3eA65FirQ4TKjO3YfcQ7uQm74Zxw6mofrID1j3720ouPN/mDE6rNWApYqYirjIj7Dp8DJklszG8EAxCtqzkbk9HTa3iYgbIh3TZ2n/96Pui+HXX4u0f32JYwvfxvGh/0CMB+Ndd6Dx0tfZaixuajdNvdy1UDdXZ1bpxOB2qqPPk46Vu2R41HfSIn1dVmkKlsLezoyiSdJyoqiyn3TGa+dXTN3ZtJHRX0qL3HVQ9/fVz5lPfbwsvd1n6ndb2gmY/noH5rlriWCAMXIU4qXlsvtgr0rFvk8ex7rd+cic9x6OD3sKMYZWnqvqjX4j+2Prt6nI2JmDYdN7AQWrkJFjhyFpGqIvIJhp+92JcaNW4Keti7BhydWImjOEl/7pBjTebra6k7V+xgC3crlroe5M0FoKTllD/L0MRRf7Un7ia1w2otc8aZG+Li6vCyupqA27+CKJiFyLynMwhv32YRRkPIpDVbuQk2tFTGxrMwur4DNiKkIWHkDBtpUom3oH7NtXotTug/jkZLQ5X1VrBB/0mX0Peu17DlmrXsGesR8iUWDvndw0/cNVRw+XRyUM8D92wS9ydD4w4G0g+Grx/39suBBEt5PxFTD4PSD8WuDw/b/W6CgHXngVeGsHcNIKXPGw+PUpYEgL68qltdq7UrFqTLpKJYQ6Y564QB+3fGnp7NclIuqxHNUoS1uP7KMFMCbfgb5BbfSH6YPgKU1wXGOCxdz2+LUQcCni+76BvMMbcLxoLMy7j8HhPRNx/S/8UmKC/yyMv3whcr87gB3zf0K/q3WtzZJHXUQzuG/0yl27+idc1Wet3LXIYokYmv6+HlD7AJckAf29xDs7PPCofLvKp2cPjgnMkrsOIiLXUIe8Zc/g5wNmeJXFI/L2sc3mpvuVo3gP8krt4o4sCn6B55moQAhGbHIi1h/ahaz1S2AucMA4fhoiL6jbrpEGAZMfQsLGu7Er9R1sjr8cGo7NykozYfTE//zfotyHzTatSqfuwIGUPUzcDeKvynVouF7YL299K7B6L2AX34R/eBp4bciZ+0e3sG4XmfckcFsZkP46EKNqo/YutjproPukxMjPZdo8EZFrEQIRd/lV2Jk+D6fW/xULdX/GJVdMQbBX07EbM6qP/IRNn76LfIsAt8Rr0C/gfKlKgMew6Yj6eiuy1y6E3RGChFHDLr6nTT8Mo+ZMQ8Zbi3FoyY8wnHtWCHUhjb+XW4E0NLvqxKi+l/feKHc9ziMFo+bJyAGUSbPAiPcPjjrPul1BDJu7pNFxn2b3y1XPGWW6y7ZtO1yT/NRdkdfIVwURkWvR9X8QM28tw49frkTByr/hi9XPwyMoEl6eHlDZa1BbfALlVXXirkwN97jfYsbcy9H88rMtMo5D/EAPHN1ZBSHoGsT16YwpPwUYht2P0YPWY9X+UtRBvs4IwumwfuPlEx9/44uy+dOiN6lVghLON28/u/30rZzhqZGjAtgjna7gI3clZ/vi+L3ZV4yJ2Olh0FbKXUtn8XDTVtbUWbzkroOIqHV6BEx4CbcNuBoH1y7C0fQDKC7KxsmT9bCr3GDwjkD48OHoPepqDE6Mg6G9Q6GCN6KTU2DYtQJuSVMQ0lkHyAkhGHjdXBw49AYKznPsHzlXw490zJA+C95bGJS3LGtsVNPeu8zNwPPfAiszgeJ6ICAcmDIFeHI2EN2eoG8Rn/sD8MZqYPsJoNQMuHsDgwcDd98E3NIX58zHU3II+Nc8YFEqkCWGHZtYYVgkcOkE4PFrgVj9ha3b/KSEhU8B16/79fE7ZomLeDvpAeAt8SNHQisnMHSoTTrw/S94Brh2TUNnInAA6HOpeCu+3lfi84ctbOWECnHlQ+KP66XvgVWHgcJawCDGlf4DgJvFeu4d3vASv8j6Doh7U3y9u4H1U4E33wXe2wYcqxLDjj+QMl783n4jbqvJafrF+qvWLdhumTr/6YHnzE3XkwkNF9bgfJtE5HxC4M24/v2bL/j5msBkJMwRl07crj7xedz34fMtPKJD33s24+F72v9aTanC78CN797RwUqps/2S1x+5ZdpNj71ZvyYlfK/OS1eNHV8A0z4ETolJIkHcrY80iMHiIPDJ+8CS3cBq8T0xqK3TNm3AB08C92yVTtUGxiUCUe5iIMsG1oih6nbx/sxXgH8O+PUpFXuAiX8B0sRQFDsIuDpJfK4YtPbuBz78APhhL7DxRTGgqDu2bkvixojfcyCwVAxPaXbxe50JDBSTUKwUuPa3/JwOtUkHv/9+o4EHxTo+EB+rFYPWHZMAb/G14lv7RCUmk3Xi9zlLDK1V4nqJ4vc/Q/x+qvKB5WJge0h8/eV/FNvhyl/DoE5zOs3UnAT++JAY8MRgerP4u+olhtSVy4DFYmjdXS624RNAoLSi2lj9wo7fWW+cHP5aoI87r1FHRETUA/wSHQb3Cd40Oan318/vuPvGfwa+or3zE6DcG3jrVeDeXqfXcVQBjz0CvLwLeGCxGAiuQquTFdaKYecfYsiAGDi+ehuY3eT6A7s+BlI+BV4Vl/teAEKkICGGlW++Ph3Wrn4MmD/l1/F6Ry3wohjk/iq+5ivi8l5SB9Yd0XJ9CeJzEsQAdXKp+Dpm4PrfAHM9Tz+W0UK4Mx8GOtImHf3+B00W6xZD3fz1QH0I8Jd7fj2hIqOF+utSgbvmAdUewHMvA4/H/doNVSgGu4l/B5a9B3wkhsbfBZ2+X2h8vUVicLxNDKu3AI0nv/9ebItLxDbYsAH4sRz4ra94W/XmNwWn7Ekv3TeopY93RERE1A2d1S9035xJ9971fGHKU18YYg5aTEi4WgwGvX59XBDDz19uEnf6HwA1OUCFGMh8WxnYUonP+/BpoMwIXNXswlLDpgLDvwC2iqllnw2nx/vtwPEiMSyJAWRk/7MPxBTcgYeeAEaXAn2iO7huJ1kvBreDYphsb5t0+PvvoJViPUfF5/a9Angk7uzxxZBRYtgTA/BvxHD5yToxlM45HTgb17GLwe3pOb8GO4laDJSTI8Xv8xiQKn4fhwIf//qt1cYZ//fw2Eu1GhWvT0dERNRDnBUrDDpN7cv3xU0b+3+WdJtKp04ZYj7nbBffieKOf+L5X9gQBEw702PksEpXIQCqxIggXR/QUX36WDBHnXhf4zGXYvroGyYGkBPAex8Bk/4oBjefJq8XDEwMPvOFowPrdgYxRG06KN6INaYMOfcMIN+J57ZJh7//DtazOf30FC4TE88+rq6BmOJShgLarWJQS0PDdQybXhBWL4bBEc3nNBKfE3Cm57LIek3aIz+NGPf4zSPu7RPuc+ACKiQiIiKZnNNnFOxdXDjIbM87iugou126QN3BC37xgr3A3z8FFqYCp6xnThZoqumYrhgubrgL+OYwsPRnIHkD0G8QMDVJXEYCl8Ti1wkcO7JuZ5B6Ck+erjfCv/1P69D33xFiuMsuOf386FZCbJh4v1psg/rS/2/vPsCiOPcugJ/ZxtI7gkgX6aigGMTE3k1yNTG9J6aZ3vu9yc293vTem6bHqF+KGnuJiY0iooKIKCC9KXUXtsw3C2iQFkBwdTm/x3mEnfafEcbzzjsFKJfqt2u1Lhsp6XX06sGmO4ZFJbbvutpt0YLw/02M8VnRywqJiIjITNp3CIr1MpWpE07url2/7y78OegNq4TBqT2OSqYbHqY8AaRLoSZ0DPCwNAQ4AkrTkjTAoteAlDbzqAOAnz8GFv8IfCaFtsS9QGYq8PZngEsg8OR9wEPRzZmoJ9OeMSmV1bd0TFp1891fvdn+bpOWqWl5QKR1J3cty1XNN1Lotc1n7loTOtkp1TJZCUSrQT7hQb9fMyX0jd6WR0RERObTPtwJNkYbNbSo1WPG1dMfeHGNYtHtmiV2c4PWdf+Vpkbgq6+ADNM1alcD2xYA9q1Gm97n+lkncVHhAtx2R/NQlgtsTgZ+Wg8szwQeexxofBd4Kqjn054RqVYbU4iSQll9QzemP4Pt7xbpX81a3rweTSf1GBqansQCQYVuvQw6U3n3j0tKP5kjJT8xKDb81zOo7rygVMobdDrDGb1wh4iI6FzUPtzJfXT+PvIC7D8WVG90qv7kiUtG3/u6YsuhqlCHB0d84KASdE2BwiiFE2urTs6MGYDELCnESAHkmpmnBxsTfWHzzQB/974Tdz/gCtPwD2Dla8A/VgOf/AY8es/pz57r6bQ9Zur+dJf+zgGOmB4y7NtmvIjT90kfbX+npOUGmOrJl5bTUT2mUcXSeqS61NJ0nl2dvpSptWs0733z+q/ipdM8hZT9ufL4XlZ1XrFSyLQNemNHvdNERETntfbxQhHcmBA/aLcsrXjilrWJk9+ZPm7pl8/+I+qFL1y/vm1T8Nh/Kh51Tvi3FscjgMw3pdDTUXCQQkVjS7ehTdtuQ2nc2pVSSGp5M8TJN0SI1dLnu4FjLsCtMW1Co/TNlAukoCKFtUrTw4qlaTd2c1pjb/ZKW1KYSpC2V3YE2JIIaEeffs1avVRL4FP4a5/0YvvbTtPlfRZSPRdK63opr7mehtFtzs5Jy9ycIoU7KWzGRkuBs5PFNFpFHHr14Mv7ko8YLnz3/pAZW/YLj3a1WiIiIjr3dXDuyNo4/tYbfwj/YtEdBz577PL/Xrbyp38luKx6ZeHkOT/8WvHYtDvw31JRLh8/wQhfWScRRFpqmLf0txSG1iQBd89qCWDS5MkrgAezgRE20teNQNFx6XNPKY9IQez5l4FEZ0D1GnDjkFbLk4LSL79LoUr6clSgtKweTNtXb1UZL21DuBQYD6wC/nsR8K/I5m0y3fn68ldAqbRt4ydA2ie9234TQdl856uhHMiXtiOoizNuky4GQtcDB1cDr08Bnhj216NO8qTtf2lP0xtmcPuEjs6uyrBP9sz3/10dExsR4KT56pm4WBtVhXZLH+0rIiIiMp8Os49q1BNpHz+1+cVZL+xY9OLE4BVLx1yQEuJYW3Fo547Yo5UGmdXQ22pdHSO1OVUvuwY65re/ekxKE9dfArz5JrD6LWBCCjBcCjOH9gFbTkhh6FVA/waQki59vUjKQGOBp+YD/7sMmPUDcPOtwBtRQJQHIG8Asg4Cu4oAK3/gxTlSfXbdn7avXhmrCgE+vk5a55fSch8EloYBIbbSNknbkFkDuMUCb1/cEqR6s/1XAB5SSI1SN9+Ze81CKQBK4WzqHcDMDuqxktb/+U1SPZ8DT98nBdo4YKRL8xsw1qUB1VJQXPAIcKVz+3nra/+V/8yqyAsfvzrmngkjfH5q+lDssxxMREREZtTxf+iCvSH+uXVv7Ix64+B/3vn+vo17No3+TaOwdQ0al3PDw498+MwDM99K3nHourtWuj8/KyhRO9HwplfbDtAAKVit0gFP/h+QuFUarIHoEcDXLwDzfYAKKZStfgn4QwpjazyBx6R5xt8ObB8KvLYa2HZYClB70HTBnJcUeq65HnhYCoDDWx7Y1pNp+4QUYeNvAHYGAv9ZAWzMAn6TwqSrN3CDFMyek9YX2Orivh5vv+lFp05SaL0HyP8USDsqzTMImN5F5BpzLbA7CFi0HFifKoVFDWAjLSNmshTsrgKuCvzrbJ5B4V20UuN0RIf0BAUcdF/9c/ZoNxtVRR/uISIiIjoHdB4dBDtjyLxnV30pDR2NHjop5J3pcf7fffRL4POP2sZc++mnm7SX+X07SNnUIYrmMDQP2DKv48W7jpQC0vftPx8uBZMvJ3ejcqEH00pCrgYar27zoRTGvlwpDd2ZtmWdIRdK01/Yvfp6s/1hM4Hktqfq/DupRxJ0AfDpBZ2XISpcjm+tf3rNe5uCYl2DbHXpubExIb7Oe9rXO0h/+1rtVVJmvqrzpREREdG57oy64pzsrMofvyZu4RUTQ979bJXfc3NXT5p5bfgWzeV+X3vaKLV9VSP1glHhVrG17sn1n2wNjlIolMH3Xx718Lho75XmrouIiIj6V59cZxXg5Zjx4m3jrj5aFBX2+Sr/Zy5ZNWnOnJD0iit8P/EbbFvSJ88Rpu6pV43MWFl6797vk1xG2dtYBd09N+oJhjoiIqKBo08vojeFvH/flnBtSeVInx+3hC68cUPk7VFexyvn+v3okuCxxVkm9MmDSagtmVp7ULx5889HpurWpxkSRod5yp6/JfSGqEC3HeYu7VxlZ62qqtU0Opq7DiIior7WL3dIDnKxOXbPvJFP3Do76t8bk/Pmf/Vn4C2LEm+NmBmcWT7D8zu/YMcsvhngjAlihXJy0vqSK3JXp3sF12gMw2aPDVzy7XNBCz2cbfLNXR0RERGZR78+/sLaSlE3Z2zgYtOQU1wdump7+I2P7BpxtRL1yqmBGdUT3Zf5D3PM5FsCukuQGctkk/ZsrbgsZ/2hId6HCzUhFw4fknHPZQGPjAodtEkm8NQoERHRQHfWnm3m7+lwcOG8EU+ahozcilEbksLnP7571OV6ncYuwb+oNMF9k+to5/VeakXj2SrpvGCUuxxP112R/GdxQt0f2Y4BhRXawHHR3unXTff775gIz3Uqhbw7b7slIjpv2agUlSeqao22Mv0uc9dCA0fykdLQCD+nteauozfM8uDaMD/XJNNw72UjHzed0ftzX8Gs7/YNn/301uscQ7z0BTGeOZpY5y2Dohz+GGStGFjZxSh3PX5IN3tfSuXY48kFns4pRxqGe7rYDhobOfi3h67yfj06yH27XCbozV0nEdHZEjvMfVVcqOdsnUZTZe5aaODwG+RQP2Koxx/mrqM3zP5WAtMZPdNw7dSw1zUNett9R8rjUw6VjP8kM27CwbzbHHxdxeJIz4rj4U4Z6nC7P738bQ84K2WWkW1EuV1dsWFMdkZdQuH+imBjerGDW0a+NmyQs41b7DCPAzPGDvruqZs9tro6WBebu1YiInMZ4m6X/c4Dk6abuw6i84XZw11rpmv04sI8N5gG0/eNeoPVoWPHRxw4WhGXkhMz+uuMGaOLKuqsPRxl5QGu2ooA5/IGX9scdaDtXld/dYqXnaL2nHzsik7uWZani885Whd+Iq/WV3ek0sU6p0LhkVfW4G9vo3IJ8XHOjQhw233TKNfd4f6uiQ42quPmrpmIiIjOT+dUuGvLdD1ZZIDbLtNw8jO9wag8VlozNKeoOiy3pDokqagqfHn2rJCc4ioHayUavF1Q5m6nq3W1qdM7W1XB3bpC7qossnFWFtq5K7NdnBX5Dn115k+U2WiOG4LKKg3+lWUNg+uP6zw1lQ3OhrJ6R3mlxlpRUae0KTwuuJdVNXh6u9nZ+Xs5HPMb5JCZEOuYfo2nQ6bpjKWNWlnTJ8UQERER4RwPdx1RyGU60/P0TEPbccWVdb5FFXV+FdVaz4oqjefxGq3H3hMa7xM1WvfyKq1neZVGKX1mbaWUaeUywWCtEjQKuaC3UkJnpRAalHKDUa0SGuSCQVDIFQ0NelGlN8oFTYOoNkKGWo3RDoJgrKnXNz0frVart3eytVI7O6gVbo7WdS4O6hIXe3WpxxDrglDpb9P3ni62ed7udkdMdZ/9vUWdUSnl2kadgXdqExGRxTnvwl1XTEHKNPzddDX1jU4iINRrdfYGg6jQNuptGvVGK9N/9g06g7Xp7KDpcyuVXGMKZdZWilrTY0bsrJVNF/Pa2zZ3m9qpldUyKST293ZR31MqZQ119To+xJiIiCyORYW77rK3UZ0w/c1r24iIiMjSDMhwR0RERGSpGO6IiIiILAjDHREREZEFYbgjIiIisiAMd0REREQWhOGOBiQBgihCFMxdBxERUV9juKMBydZaWV1cUetn7jqIiM626vpGZz4KzLIx3BEREQ0QZSfqvZduPrRw4dwRT5m7Fuo/DHdEREQDxMaUY5etT8q9kuHOsjHcERERDRCbkvMuLyirDczIrRgV5ueaZO56qH8w3BEREQ0Api7ZvYfLEkxfb5RCHsOd5WK4IyIiGgBMXbJGUZSZvt6QnDf/nnkjnzB3TdQ/GO6IiIgGAFOX7Mmv2TVr2RjuiIiILFzrLtmT2DVruRjuaEBSK+Uarc5gbe46iIjOhtZdsiexa9ZyMdzRgKRQyBr1eqPK3HUQEZ0NrbtkT2LXrOViuCMiIrJgHXXJnsSuWcvEcEdERGTBOuqSPYlds5aJ4Y6IiMiCddQlexK7Zi0Twx0REZGF6qpL9iR2zVoehjsiIiIL1VWX7EnsmrU8DHdEREQWamNS7vy/m4Zds5aH4Y4GJJkgGP+uNUtEdD4zdcmmZZeP7c607Jq1LAx3NCDZqBU19Vq9vbnrICLqL+5ONgW7PrpG3vbzBS+v27Zw3sgnRwx1/8McdVH/Y7gjIiIisiAMdzQgebrY5sVHeq0xdx1ERER9jeGOBqSh3k77TIO56yAiOtvcnGwKrZQyrbnroP7DcEdERDSALLp93JXmroH6F8MdERERkQVhuCMiIhpAcourQ9ydbQpsrBS15q6F+gfDHRER0QDy4pc7P+WjUCwbwx2d5pWlqd/X1Dc6mLsO6h+2VvLKi6IHfxUf4bXW3LUQEVH/YLij0yzdcOBKL08XKOR8eYMlqqutr0nJLBoRHzGH4Y6IyEIx3NFpFAq5GODnISjk7R5qThbAVm44WHOiptTcdRARUf9huCMiIiKyIAx3REREA0iYv2uSvbXyhLnroP7DcEdERDSAPHRF7IPmroH6F8MdERERkQVhuCMiIhpAkjJLJprere1kZ1Vu7lqofzDcERERDSAf/bz3BT7E2LIx3BERERFZEIY7IiIiIgvCcEdERERkQRjuiIiIiCwIwx0REdEActHwIb+4OqiLzV0H9R+GOyIiogHk+unhr5i7BupfDHdEREREFoThjoiIaABZsyvn2phhHls9nG3yzV0L9Q+GOzqHGXFizc1Y8sN+2Ez+CLdeNwoyc5Qh5iN50TxszXbDyMd+wcSQbvzadDiPEcdX34glP6bDbtqnuOXqkebZHiIa0JZvPXSnp6ttLsOd5WK4IyIiIrIgDHdEZ40MzjOX4P4Z0peCDIK5yyEiIovEcEd0NplCHVMdERH1I4Y7IiIiIgvCcEfdoEPtweXYvW4lcg7noEZjgNLeG+5hUzB81vUY5m3balojqtcvwBffpsFj/jLMH52NHd98hIzMo6jXW8F2yBhEzn0EY6I9YSj8DduXLkbmIdM4G9j7jkX05Y9gVKhL+y5L6QND+TbsXvYZ0g9kolorg9otBH4JtyJhRgIc2v0k96TmFpospP/yHlJ2p6CyqgFyhwB4j74GCZfEdL5rejRPRzdUnL6/rhhXjtSlHyBtXzqqaqWanaTljboe4+bNhptV2/W+jz2Je1BRrYPKORi+Y2/C2JkXoPTTiViZZI3IB9diWpSyi39XIhqILhs/7MPBrrY55q6D+g/DHf2NBpRteAgrvtuBOpkLPCInIsJZAW1RMnJ2fIyVyVsRe9+HGB/u2DK9AJnC9GMlQle+Fhte/xk1oZcgdp4amiNrkLZrI3a8XwnF3TOQ/8Vi6Edciti51tAeXYO9O3/DH+9UQ/3C24hyPf0+UqF+Oza+/DUO6YfCO2Qc3OpzUJCViowVD6Cw5BVcfcsE2Ai9rVliyEbKOwuwNaMaModQ+MVHwA6VKEv+H37MvRzDxA52TW/maafV/qrcjM0vLUG+x0yEzZ4ClS4feduW48i651Bao8b1CybD2rSN+sNIfus2/J5ZA8EuCL6xkbA15CH/t0fwQ979iGowSou1gkLJ/l8iam/GGP9vzF0D9S+GO+qSMW8x1v4ghSSr4Yh/+G3EB9m3jNGhetc/sfTjNUhZ/CEC/v04fFvOLAlNF5UZUbltGRxvXILLx3k1n4kT58Cl4R9YsycV298rgP/1i1uNuxgujZfit5REHEwtReRkz1Zn70TUJX2PgpjnccMtM+HUdDLKCO3BN/Hj61+jbPs72DP5QiT4y3tZswhN4gfYebAKcL8Uc55+DkGOLeGyIQvJb9+JP7L0bfZMb+bp2Kn9tXUxVJd8gGsvDsPJ820jR3vhx2dfQ37yCmRfNQmRDkB94vvYdagacJ2NWU8/j2HOzdutL/4Jq19+Fcn1pvUKvLaPiGiAYrijLjTi2OYVKNPL4DbzMYw5FZJMlHCIexBj/tyK9ft/w/59C+E7yq7VeBGiywyMvsDrr5AmOGPwsEDI96TB6DgVo04b5wjvkGDIk1NxvPCYFHU8IW+1LIMQizFXzWgJdiYyqENuQ9zw/8OqpFxk7zmMeP8Q6dNe1CxWIydpJ7SiAl4Tb0GgY6uzhlbBGHn5pdj34heobL1rejNPl6T95TANY6f/FeyadovbGPh6ypGffxTlxQbAvg65ibua1zvlDgQ7/7WXFJ6XYvK8LVj8+VbwVlwiooGL4Y46ZzyC/KwKiLJB8I0Kbv/AXcEVvpHDIN+XhqKsLBhHtX4orwC5bwTcT/sJE6C2s28e5xPeZpwMVrb20hgROm19u1Lk/gnwc2iTWAQ7eAZLgTApFSeOZUOHEFj1pmZjLkqPaaQSBsEraHC7XCTzicMQ+yWorGm9b3oxT5ekfRIQA09V248dYW0rLV2sR4NWbF5vgVZawWAMHurVZr0CbGNnwe/b33GoobvrJSIiS8NwR50zlqC60tgULPLXPI81W9ufDhIrSiEKRtSVFUrhaiT+uuZfgNLGvoNw1XymSWFt1+rMXMuoln5Esd21atKy3Aa3uqbuJBlsnV2l+USINRXQSPNZ9aZmsRx1VaLpNBlsHTp4Z4TMHfZO0uetg1pv5umSaX85tNsnpm0U5KZtkLbRtGPEiub1yjyal9+WVQDc3OU4xOfOExENWAx31DmjFnq9KVCcQGnKSpR2MamgrYPOFK662x3YowvCBChU6o7HKKyaAqRe3wiD2MuaDY3QG01BTQlFhzeXqiBv+5vSm3n+Tnd2iaGheb3S8ju8YUKwharb/whERGSJGO6oczI1lKYAIUZj/H8+R6yH+d6EatB3fHOCKIU6I0wZywoKU6bpTc1yJeQyaR69zvSnAxroGsUzn6cvyFrWa9DB0JRm2wQ5Uds/6yUiovMGwx11TuYFR9MjSQpKUH1cilBmC3dGNB4vRoOUWU7vmjWi/kQFRFGAzNG9+TEhvalZcIatvTRzZRlqq6R5PNvMoy/ECVNX75nO0xdkLdfgnahEXbW0Q1zajNfloKLc0PfrJSKi8wbDHXVO5g/vYDcIx8qQszcdhpDoNteEiWjM24ZcbQB8h/rAqh+znzEnEQWaeQi2af1pHYoPZ8EgVeXqG9x8l2lvapbmcR+sAsrLUZSdDzHE/7TzYbqsP5GvaXM2rDfz9AWZH9w8pV/b4wUoPioFW3+P0x4Zo01bh9x6kXfLEhENYAx31AUVhoyfC/ffP0LpppewPepdjAtzPpUbDGXrsOm9Z5Be7o3YJ5di/NC2t3r2FQGC5nfs/CURPleOhrqlAN3Rb5CUWiv9FIciOOZkuOpFzYITfGNioNq3HSWbPsKhMf9GiGvzr4ZYvRs7lq2HxtTn27pnuDfz9MmucIXv8AgoMlJRsPFL5Mc9DB9b4dS2bV62C6K1lFi1fbxeIiI6bzDcUZdkvjdh+hVpWPH9DiS+OhfZIaPh6W4HY1UWCjLSUaOzhsfMpzEmqH+CnekOUREyOMZfCZeke7E4PQ7+Q70grzuMvL17UKVTwnXKAxgx+K/Thj2vWQb7+LsQuyUVO3LWYvWzB5AaGgpbYznKsvZBE3A7YoZ9it3pYqs7eXszT1+QwenCOxG15V7sKfgW//dsGvwjQ2DdmIf8vanAmEcwougV7Dzcl+skIqLzCcMd/Q0ruE99E9f4LEfSulU4engHMjMbIFi7wXnoxYiedBNiYgLQX2+6MjbdrSBA5Xkxpl0cid0/foGDu3ehpkEBtVssIibcjnFTR7e5S7cXNasiccHDH8JmxQfYuycNxXu3QO4YgCEJz2LO3Gk4/sXnUtJsgF4nntk8fcE6DuMffQu2yz7G/rQMHNmeBbVHFALnvoeESd7IfOUVND1CxXz3vxARkRkx3FE3KGEfehUmmoa/nVaA7YQPcf+EjsepE97C/Qkdz6mKfwP3xbf+RAbXi7/DAxef/D4ACQsnoZPZz6DmlursojD8hvelof0497t34KEznkcG51lf4YFZpy2hi/2Fpm7Y6Id3IbrNxzLnCxC3QBraTm/MQqPpYcewgUrNC++I2iqsqA+trGkYZO46yLyc7ZQF3m52FtvHwXBHdJ7RVx7AscNZqLMbg4jwNm+pqE1HUYlByra+cHVr/0hkooHuuhd/21NTp1Wr1f11jTCdD7TaRix9fk54gJdjhrlr6Q8Md0TnGeOxpVj34S+od5oK2ZP/Qbh7y1OUDSU4vOxz5DYKUMdOhW/Hz30mGtCs1crGwAAvtaODzd9PTBYr90h+lsEoWmwGstgNI7JUqqgFGBezA+tTNmDtswewNywKTlZaVB9JQmF5PQTHCbho/pTm5/4REdGAw3BHdL6RDUHEnV/CftNnSN7+J4rSN6LEqISVcwACJs5GzJz58HVmlywR0UDFcEd0PlJ4wnfa09Jg7kKIiOhcw3BHREREZEEY7oiIiIgsCMMd0VlnxIk1N2PJD/thM/kj3HrdKPB5w0RE1FcY7oiIiM6G6kTs+uo17N2XjXqDHQJvXIZLxrmauyqyQAx3ZEHqkPneNKypuhM3PXk9HPkoECI6Z9ThyI9PYXtSBQT7ofAZ5gsXW56zp/7BcEeWw3AEJce0gIO5CyEiasOQhWOZlRBl3hi58GtMCDnbb8hg43cgYbgjy1GTidIK8dwOdwYNdKKVuasgorNNrIamXjo+yXzhNlh59tfPxu+AwnBH/cyI6vUL8MW3afCYvwxXjCtH6tIPkLYvHVW1BiidAuA96nqMmzcbbu0yjw61B5dj97qVyDmcgxqNNL29N9zDpmD4rOsxzNu2ZbpGZH04Ab/u0jR/m/U6PrvldUAZiwCHPThaNQqTX/4Aw51bdYEYUrH1yVuRXCbAZc5XuOGysFY3NRhRI9X8+bd74TBrMW6cH9k8TqxHZco3SNy0Hnk5uajTipDbDoJrUAJCp96E4eGekLdaRvNNE+nwuHIZLvVbi7Vffou8UgFhD6xBXGe7S6xD0f/dgWUr0yEELMBlj9wJL75qgsgCiKbDgkQGwRy9sWej8dvUeLWGksnC7PhPQP1MgExh+jEToavcjM0vLUG+x0yEzZ4ClS4feduW48i651Bao8b1Cya3emVWA8o2PIQV3+1AncwFHpETEeGsgLYoGTk7PsbK5K2Ive9DjA93lKaVw3n41YgV/8S+xEzonEYhMi4MKoUfHCoPI2fnQRQcacDwWOtTVYlle1BQKVUnGFGVtRd1YhjsT61bg8JDmTAIzvAJG9YS7GqQv/xO/LQ6HY0KdwyKmIoAZys0lu1FTtpSbEnbgNzrPsGlEwNOhUS5srnbRV+1Cds++RRFqlAMDnGCo7qzsGZA1Y5/4tdV6TB6XIo5997BYEd03mvAofcuwsqkxpbv/8Dae2KwFkr4XPcrLp88CM2/5d1tzLbQFyF30xLs2bUdxUUl0EqLV9gPhlvwRETPvhnhfvYtE3bW+J2M2e+8ihArA8p+vgbf/JQNx9lLcOPlEaffvW/Mws7nr8H2fG+Mfno5Lgw0NWG7aryuw7QoZc+3h/oUwx31O0EwHbqMqNy6GKpLPsC1F4fhZKfEyNFe+PHZ15CfvALZV01CpEPzYc6Ytxhrf5CCndVwxD/8NuKDTh6odKje9U8s/XgNUhZ/iIB/Pw5fKznc4u/FOKdaZErhzuB2EeKuNF1TIkLzx+/YtvMPFB/OgjE2uuWgJUJ7OAXl8IdfRAPyslNR1HAV7NUtq9BnSGFQOhCqE+Ab1BLQsj7C+t8yoLOOxbhH30Kc/8kDkxF1exdh6TvLcfTHV7E/+h1Eu5rWIkitc1nT+NrdKyAf9RZuujoeNkLzPCey2+4lEQ2H3sOvSzahzm4sJt33JIKceLE10flPAecR1yLWJQc5m7agwugN/4kT4aqUPvezbQl2PWnMSozHsO/dm7EhrRKCbQCGhE+Vjl8GaIpSkZf0Bdak7cSJRz/D2CBTg7azxm8wXM7gLYVdN157uD3U5xju6CwRITpMw9jpfwU7E8FtDHw95cjPP4ryYgPgYPqRbMSxzStQppfBbeZjGHMq2Jko4RD3IMb8uRXr9/+G/fsWwneUXSfrFKAOGQUP+e8oyU5DjRjdchFxA4oO7ofBZjwiLqhDYfo+FObpMWxY86+DWLIHhVUiFGFx8G4KfPXI/X01ThhlcJpwP2L9W7c4ZbCNvgtxkauxNi0R6UmFiJo+pOmAfTLUahpCMenSC1qCXceMpT9jzQdLUCqEYcw9/8PwwWf7Ymsi6h9yuCfch/FjtkKzTQp3On+EzH0QEbZ/HRB61piVAlX6F9ieVgE4z8bs515AsOPJhqAGJT8twA+/pCP5l7UY/sA/YCt01vg9k23qqvFq2p7PerQ91PcY7ugsESAPiIFn28wiOMLadJAT69GgFZs/Mx5BflYFRNkg+EYFt3/Ar+AK38hhkO9LQ1FWFoyjRnb6EGDBdRR8POQoPJaKYu11cDQ1ZA1ZyD9cA7n/cAwJroWbbAsKD+dDHOYvVSlCk52KSqN0QA4b1XywkuopzK6GaOqmDQ9Fu8au4ATv0KGQ792H8iMHoceQ0wKs3FcKiV0kO7EuEX+8+z9k1wxG+J2vY2xwZ2GViCxPLxqzgy/D9HvGQGsTiaGOrY9+1vBImA6PVQdQlJOGMoMU7vrpf/nOG6991TinM8FwR2eJAKWNQ/tgZLq4WG46KogQxZPhrgTVlcamwJe/5nms2do+GIkVpVLYMqKurFBqC45Ep40/WRB8Qlyxe+sBFOTpEBKilOZNRUGFAJexUbBxrYWXsxF7D+1Dw0x/qIUGFB86AIMwBD5hzWfgYJDqOS7VI4VNB9eO+jFksHPxkA52IgzHS6CRNkN5qmQBCicPdHrpnD4HaR9/gJRjejhPfwFTRp28/oaIBoReNGYVLhHwl4YmhnpoqqvQqDOYjqLSYVPfdJwVtXVobLusftCu8dqHjXPqPYY7Onu6m1qMWuj1UkIST6A0ZSVKu1qkdADTSZNadbpsFTzDR0K1ZSOKDhdADPFDQ1Yyyo0uCA/2k4KlDoMDbZCSsQfF+ovhL2s+qweHqfD1aQlyhgbojdJKBCsoOnmCgaC0ajpA6Rs1TfWgVbiTKTt77IGI+h2vYatOa7qPDicSlyNn1ggMdWC8IxowetWYNaDu4Hf485dlOJyVB61ebL9cZQef9bkOGq992TinXmO4o3OPTA2l6dSXGI3x//kcsR5n1q5TBY+Gp2IdCrL2oUEcjKJD+6BXjoS3nyl0yeEZHApZ4j4UFhrgZ52KwgoRqpgx0jwtC5BLoU4m1aOXQl4nTWFRCmimpxyYQp6829lMhEGngOfUFxBe9R427/oNG78eB8+7ZsCO+Y5oYOhxY1aa9uAbWPbGt6jQ28Al+krERofB0c4GTZfBaZOwe/EPXS6n73TQeO3Txjn1FsMdnXtkXnA03XFa0NIdeobhDvax8BkiR15OKkoaA6WQVwWZ7wh4NT0ZRQbbwCg44hsUHilHg3oPygwqeEeMxKnLA+VSPS5SDcXFqKrQA15tLxw0oqa8BEZRasW6eMG22wcqGazj/oV5V02Gus4RpdkPYn/Sy9jwZzQuHTeY3bNEA0FPG7NiMVJ//VEKdgq4z3ofV14ejdOOSDW12N/HB49Tl8x0Rx83zql3GO7o3CPzh3ewG4RjZcjZmw5DSHSba/VENOZtQ642AL5DfWDV9tghNv1ptbwh8AkdDKw7gMIMPxSUiXAYMfzUc+1k3iPgabMERw6lIl+9H3rZMPiGOreaPxDeQ50gFB3Hsf1SPZEjTq9HLMex9MMwCkoMGhbZo18qhZ0jVKY67C7ERTdehoI3l+Ho9y8iLfgdDB90Bs8pIKLzQ08bs4ZDKM7VSfNFInRcJNo1NUtzUGXqRuj24UNouTlChGgwth8tVkNb35Nw18eNc+oVhjs6B6kwZPxcuP/+EUo3vYTtUe9iXJjzqTNZhrJ12PTeM0gv90bsk0sxfmjz4U1QqJq6RI3HC1FrAJxO/XRLLdywGFivWYP8zX+g1GCP4GGtLvRVRmCwvwIZh1dhv81xCIMugY9b6wOSGr4TLoHL9sWo/P0dJF/wdqvn3OlRk/Q2EjMaINhNRtTo3t4QIUAdcT+mTE7CivU7se2LbzHkkevhyt9QIsvW08asqINBOr6ZrgFWtk12UhDL2bIWJ5rC3ck3YrSdpk3jV6Kybn7eXkNtVbtxYmkaik50tKA+2h5mv37B/zronCTzvQnTr0jDiu93IPHVucgOGQ1PdzsYq7JQkJGOGp01PGY+jTFBfx3dZJ4hcFMJqKpcgdUv5sLd3g5+8xchxlcORWAcvK1+xuH9yRAVF8A7sNUlvIITvIL8IBz4E0crANsJcXBrc8CRB96Kaf/Yi/9bkYI/Fl2G7Kh4eDgAmqIU5GYeQ4MyANE3P4qQM7kZQrCFz7znEJN+BxIPfYB1a+JwxZyQ7jfAieg81MPGbKAvXE1n9Y9lImd/GYZf1NKgFGtRsuFZbMn3goe6BCX6StRWS6Gs5WDWeeNXBlvvQKiFFNRn7URx4zh4nzysGouQsWIpynvUZO1d45z6FsMdnaOs4D71TVzjsxxJ61bh6OEdyMxsgGDtBuehFyN60k2IiQlo9cgRif00XHjtbtQsW4fyglQUu4yC/8m7G2xGwsdfiayDjZD5jIDXaXcsyOEyNArWyEIdHDAkIqKDQGULrznvSfV8h90b1iD34FqUNhihsB8CjwsWIGrmdQj1sW83V883ewTib7kJef/7BEW/Po+d4Z8jIVD99/MR0XmrR41ZIQhhE+OQ8uV2HPn6JizNuAju6hocz9qO/OpQXPjo0xC/vBol2XuR9Mm/UDVyJsZMj4dNF41fefAliBj8M3YXfo+Vr9YjOnYY1IZSFCevRL7DtYgNfR+7MsRuX3vXm8Y59S2GO+pnAmwnfIj7J3Q22hXRD+9CdIcjlbAPvQoTTUO31qWCy7gXcJ00tF+PJ0Y8vgsjOplTHvks7vj82b9ZvhpOw2/GNGn4e11ttwxOM5bg/hkdz6kIuAvXfnRXN9ZBRJahJ41ZGRzH/xdz9W9i28atKE5cjhK1J9xC52HmPXdgmKcK2nk34ehn36Dg6O/IcYvHaNNsXTV+lVGIf/A1yJd+gvQDq7ErexVUzsHwiX8C8y+JR+nHH8D0dgmDvj+2h/oDwx0REVF/U4zHjPdT0EmbDj1qzAqO8JryT1wxpePR6rC7cfmrd7f5tIvGr0TueiHi75KGDsY5LdyJh04voOtGe5OeNs6pLzHcEREREVkQhjsiIiIiC8JwR0RERGRBGO6IiIiILAjDHREREZEFYbgjIiIisiAMd0REREQWhOGOiIiIyIIw3BERERFZEIY7IiIiIgvCcEdERAOGm70qc+/+o6PNXQeZXbCNlaLW3EX0F4Y7IiIaMJY8NSPO3DUQ9TeGOyIiIiILwnBHREREZEEY7oiIiIgsCMMdERERkQX5fyjWBRJqWSBUAAAAAElFTkSuQmCC;" vertex="1" parent="1">
          <mxGeometry x="98" y="-1070" width="631" height="792" as="geometry" />
        </mxCell>
      </root>
    </mxGraphModel>
  </diagram>
</mxfile>
